<svg id="kity_svg_6" xmlns="http://www.w3.org/2000/svg" xmlns:xlink="http://www.w3.org/1999/xlink" version="1.1" width="2389" height="1646" style="background: rgb(251, 251, 251); visibility: visible;" viewBox="0 0 2389 1646"><defs id="kity_defs_7"><linearGradient id="kity_linearGradient_17" x1="0" y1="0" x2="0" y2="1"><stop id="kity_stop_18" offset="0" stop-color="rgb(255, 255, 255)"></stop><stop id="kity_stop_19" offset="1" stop-color="rgb(204, 204, 204)"></stop></linearGradient><marker id="kity_marker_2" orient="auto" refX="6" refY="0" viewBox="-7 -7 14 14" markerWidth="7" markerHeight="7" markerUnits="userSpaceOnUse"><path id="kity_path_3" fill="rgb(115, 161, 191)" stroke="none" d="M6,0A6,6,0,1,1,-6,0A6,6,0,1,1,6,0"></path></marker></defs><g id="kity_g_8"><g id="minder1" text-rendering="optimize-speed"><g id="minder_connect_group1"><path id="kity_path_31" fill="none" stroke="rgb(115, 161, 191)" stroke-width="1" d="M1288.5,1137A348,519.5,0,0,1,1636.5,617.5"></path><path id="kity_path_33" fill="none" stroke="rgb(115, 161, 191)" stroke-width="1" d="M1765.5,617.5C1780.5,617.5,1780.5,160.5,1795.5,160.5L1946.5,160.5"></path><path id="kity_path_35" fill="none" stroke="rgb(115, 161, 191)" stroke-width="1" d="M1765.5,617.5C1780.5,617.5,1780.5,222.5,1795.5,222.5L1995.5,222.5"></path><path id="kity_path_37" fill="none" stroke="rgb(115, 161, 191)" stroke-width="1" d="M1765.5,617.5C1780.5,617.5,1780.5,284.5,1795.5,284.5L2002.5,284.5"></path><path id="kity_path_39" fill="none" stroke="rgb(115, 161, 191)" stroke-width="1" d="M1765.5,617.5C1780.5,617.5,1780.5,344.5,1795.5,344.5L1944.5,344.5"></path><path id="kity_path_41" fill="none" stroke="rgb(115, 161, 191)" stroke-width="1" d="M1765.5,617.5C1780.5,617.5,1780.5,406.5,1795.5,406.5L2060.5,406.5"></path><path id="kity_path_43" fill="none" stroke="rgb(115, 161, 191)" stroke-width="1" d="M1765.5,617.5C1780.5,617.5,1780.5,674.5,1795.5,674.5L1875.5,674.5"></path><path id="kity_path_45" fill="none" stroke="rgb(115, 161, 191)" stroke-width="1" d="M1875.5,674.5C1890.5,674.5,1890.5,468.5,1905.5,468.5L2087.5,468.5"></path><path id="kity_path_47" fill="none" stroke="rgb(115, 161, 191)" stroke-width="1" d="M1875.5,674.5C1890.5,674.5,1890.5,528.5,1905.5,528.5L2133.5,528.5"></path><path id="kity_path_49" fill="none" stroke="rgb(115, 161, 191)" stroke-width="1" d="M1875.5,674.5C1890.5,674.5,1890.5,588.5,1905.5,588.5L2115.5,588.5"></path><path id="kity_path_51" fill="none" stroke="rgb(115, 161, 191)" stroke-width="1" d="M1875.5,674.5C1890.5,674.5,1890.5,648.5,1905.5,648.5L2177.5,648.5"></path><path id="kity_path_53" fill="none" stroke="rgb(115, 161, 191)" stroke-width="1" d="M1875.5,674.5C1890.5,674.5,1890.5,710.5,1905.5,710.5L2170.5,710.5"></path><path id="kity_path_55" fill="none" stroke="rgb(115, 161, 191)" stroke-width="1" d="M1875.5,674.5C1890.5,674.5,1890.5,770.5,1905.5,770.5L2115.5,770.5"></path><path id="kity_path_57" fill="none" stroke="rgb(115, 161, 191)" stroke-width="1" d="M1875.5,674.5C1890.5,674.5,1890.5,830.5,1905.5,830.5L2081.5,830.5"></path><path id="kity_path_59" fill="none" stroke="rgb(115, 161, 191)" stroke-width="1" d="M1875.5,674.5C1890.5,674.5,1890.5,890.5,1905.5,890.5L2070.5,890.5"></path><path id="kity_path_61" fill="none" stroke="rgb(115, 161, 191)" stroke-width="1" d="M1765.5,617.5C1780.5,617.5,1780.5,1110.5,1795.5,1110.5L1911.5,1110.5"></path><path id="kity_path_63" fill="none" stroke="rgb(115, 161, 191)" stroke-width="1" d="M1911.5,1110.5C1926.5,1110.5,1926.5,942.5,1941.5,942.5L2188.5,942.5"></path><path id="kity_path_65" fill="none" stroke="rgb(115, 161, 191)" stroke-width="1" d="M1911.5,1110.5C1926.5,1110.5,1926.5,999.5,1941.5,999.5L2127.5,999.5"></path><path id="kity_path_67" fill="none" stroke="rgb(115, 161, 191)" stroke-width="1" d="M1911.5,1110.5C1932.5,1110.5,1932.5,1051.5,1953.5,1051.5L2141.5,1051.5"></path><path id="kity_path_69" fill="none" stroke="rgb(115, 161, 191)" stroke-width="1" d="M1911.5,1110.5C1926.5,1110.5,1926.5,1113.5,1941.5,1113.5L2369.5,1113.5"></path><path id="kity_path_71" fill="none" stroke="rgb(115, 161, 191)" stroke-width="1" d="M1911.5,1110.5C1926.5,1110.5,1926.5,1170.5,1941.5,1170.5L2224.5,1170.5"></path><path id="kity_path_73" fill="none" stroke="rgb(115, 161, 191)" stroke-width="1" d="M1911.5,1110.5C1926.5,1110.5,1926.5,1222.5,1941.5,1222.5L2188.5,1222.5"></path><path id="kity_path_75" fill="none" stroke="rgb(115, 161, 191)" stroke-width="1" d="M1911.5,1110.5C1939.5,1110.5,1939.5,1288.5,1967.5,1288.5L2091.5,1288.5"></path><path id="kity_path_77" fill="none" stroke="rgb(115, 161, 191)" stroke-width="1" d="M1288.5,1137A553,18,0,0,1,735.5,1155"></path><path id="kity_path_79" fill="none" stroke="rgb(115, 161, 191)" stroke-width="1" d="M642.5,1155C627.5,1155,627.5,1082.5,612.5,1082.5L459.5,1082.5"></path><path id="kity_path_81" fill="none" stroke="rgb(115, 161, 191)" stroke-width="1" d="M642.5,1155C627.5,1155,627.5,1144.5,612.5,1144.5L397.5,1144.5"></path><path id="kity_path_83" fill="none" stroke="rgb(115, 161, 191)" stroke-width="1" d="M642.5,1155C627.5,1155,627.5,1204.5,612.5,1204.5L471.5,1204.5"></path><path id="kity_path_85" fill="none" stroke="rgb(115, 161, 191)" stroke-width="1" d="M642.5,1155C627.5,1155,627.5,1264.5,612.5,1264.5L438.5,1264.5"></path><path id="kity_path_87" fill="none" stroke="rgb(115, 161, 191)" stroke-width="1" d="M1288.5,1137A496,377.5,0,0,1,792.5,1514.5"></path><path id="kity_path_89" fill="none" stroke="rgb(115, 161, 191)" stroke-width="1" d="M692.5,1514.5C677.5,1514.5,677.5,1440.5,662.5,1440.5L528.5,1440.5"></path><path id="kity_path_91" fill="none" stroke="rgb(115, 161, 191)" stroke-width="1" d="M692.5,1514.5C677.5,1514.5,677.5,1502.5,662.5,1502.5L507.5,1502.5"></path><path id="kity_path_93" fill="none" stroke="rgb(115, 161, 191)" stroke-width="1" d="M692.5,1514.5C677.5,1514.5,677.5,1564.5,662.5,1564.5L498.5,1564.5"></path><path id="kity_path_95" fill="none" stroke="rgb(115, 161, 191)" stroke-width="1" d="M692.5,1514.5C677.5,1514.5,677.5,1626.5,662.5,1626.5L528.5,1626.5"></path><path id="kity_path_99" fill="none" stroke="rgb(115, 161, 191)" stroke-width="1" d="M1288.5,1137A513,299.5,0,0,0,775.5,837.5"></path><path id="kity_path_101" fill="none" stroke="rgb(115, 161, 191)" stroke-width="1" d="M675.5,837.5C660.5,837.5,660.5,854.5,645.5,854.5L533.5,854.5"></path><path id="kity_path_103" fill="none" stroke="rgb(115, 161, 191)" stroke-width="1" d="M533.5,854.5C519,854.5,519,684.5,504.5,684.5L400.5,684.5"></path><path id="kity_path_105" fill="none" stroke="rgb(115, 161, 191)" stroke-width="1" d="M400.5,684.5C385.5,684.5,385.5,687.5,370.5,687.5L246.5,687.5"></path><path id="kity_path_107" fill="none" stroke="rgb(115, 161, 191)" stroke-width="1" d="M246.5,687.5C231.5,687.5,231.5,690.5,216.5,690.5L95.5,690.5"></path><path id="kity_path_109" fill="none" stroke="rgb(115, 161, 191)" stroke-width="1" d="M533.5,854.5C511,854.5,511,905.5,488.5,905.5L396.5,905.5"></path><path id="kity_path_111" fill="none" stroke="rgb(115, 161, 191)" stroke-width="1" d="M396.5,905.5C381.5,905.5,381.5,804.5,366.5,804.5L283.5,804.5"></path><path id="kity_path_113" fill="none" stroke="rgb(115, 161, 191)" stroke-width="1" d="M283.5,804.5C268.5,804.5,268.5,778.5,253.5,778.5L173.5,778.5"></path><path id="kity_path_115" fill="none" stroke="rgb(115, 161, 191)" stroke-width="1" d="M283.5,804.5C268.5,804.5,268.5,830.5,253.5,830.5L162.5,830.5"></path><path id="kity_path_117" fill="none" stroke="rgb(115, 161, 191)" stroke-width="1" d="M396.5,905.5C381.5,905.5,381.5,1006.5,366.5,1006.5L286.5,1006.5"></path><path id="kity_path_119" fill="none" stroke="rgb(115, 161, 191)" stroke-width="1" d="M286.5,1006.5C271.5,1006.5,271.5,890.5,256.5,890.5L131.5,890.5"></path><path id="kity_path_121" fill="none" stroke="rgb(115, 161, 191)" stroke-width="1" d="M286.5,1006.5C271.5,1006.5,271.5,950.5,256.5,950.5L20.5,950.5"></path><path id="kity_path_123" fill="none" stroke="rgb(115, 161, 191)" stroke-width="1" d="M286.5,1006.5C271.5,1006.5,271.5,1010.5,256.5,1010.5L88.5,1010.5"></path><path id="kity_path_125" fill="none" stroke="rgb(115, 161, 191)" stroke-width="1" d="M286.5,1006.5C271.5,1006.5,271.5,1070.5,256.5,1070.5L72.5,1070.5"></path><path id="kity_path_127" fill="none" stroke="rgb(115, 161, 191)" stroke-width="1" d="M286.5,1006.5C271.5,1006.5,271.5,1130.5,256.5,1130.5L128.5,1130.5"></path><path id="kity_path_129" fill="none" stroke="rgb(115, 161, 191)" stroke-width="1" d="M1288.5,1137A177,407.5,0,0,0,1465.5,1544.5"></path><path id="kity_path_131" fill="none" stroke="rgb(115, 161, 191)" stroke-width="1" d="M1565.5,1544.5C1786.5,1544.5,1786.5,1429.5,2007.5,1429.5L2201.5,1429.5"></path><path id="kity_path_133" fill="none" stroke="rgb(115, 161, 191)" stroke-width="1" d="M1565.5,1544.5C1791.5,1544.5,1791.5,1507.5,2017.5,1507.5L2225.5,1507.5"></path><path id="kity_path_135" fill="none" stroke="rgb(115, 161, 191)" stroke-width="1" d="M1565.5,1544.5C1783,1544.5,1783,1588.5,2000.5,1588.5L2204.5,1588.5"></path><path id="kity_path_137" fill="none" stroke="rgb(115, 161, 191)" stroke-width="1" d="M1288.5,1137A392,635.5,0,0,0,896.5,501.5"></path><path id="kity_path_139" fill="none" stroke="rgb(115, 161, 191)" stroke-width="1" d="M798.5,501.5C783.5,501.5,783.5,322.5,768.5,322.5L689.5,322.5"></path><path id="kity_path_141" fill="none" stroke="rgb(115, 161, 191)" stroke-width="1" d="M689.5,322.5C674.5,322.5,674.5,50.5,659.5,50.5L560.5,50.5"></path><path id="kity_path_143" fill="none" stroke="rgb(115, 161, 191)" stroke-width="1" d="M689.5,322.5C674.5,322.5,674.5,130.5,659.5,130.5L558.5,130.5"></path><path id="kity_path_145" fill="none" stroke="rgb(115, 161, 191)" stroke-width="1" d="M558.5,130.5C543.5,130.5,543.5,102.5,528.5,102.5L341.5,102.5"></path><path id="kity_path_147" fill="none" stroke="rgb(115, 161, 191)" stroke-width="1" d="M689.5,322.5C674.5,322.5,674.5,211.5,659.5,211.5L582.5,211.5"></path><path id="kity_path_149" fill="none" stroke="rgb(115, 161, 191)" stroke-width="1" d="M689.5,322.5C674.5,322.5,674.5,379.5,659.5,379.5L591.5,379.5"></path><path id="kity_path_151" fill="none" stroke="rgb(115, 161, 191)" stroke-width="1" d="M591.5,379.5C576.5,379.5,576.5,268.5,561.5,268.5L436.5,268.5"></path><path id="kity_path_153" fill="none" stroke="rgb(115, 161, 191)" stroke-width="1" d="M591.5,379.5C576.5,379.5,576.5,325.5,561.5,325.5L412.5,325.5"></path><path id="kity_path_155" fill="none" stroke="rgb(115, 161, 191)" stroke-width="1" d="M591.5,379.5C576.5,379.5,576.5,382.5,561.5,382.5L460.5,382.5"></path><path id="kity_path_157" fill="none" stroke="rgb(115, 161, 191)" stroke-width="1" d="M591.5,379.5C576.5,379.5,576.5,439.5,561.5,439.5L448.5,439.5"></path><path id="kity_path_159" fill="none" stroke="rgb(115, 161, 191)" stroke-width="1" d="M591.5,379.5C576.5,379.5,576.5,496.5,561.5,496.5L436.5,496.5"></path><path id="kity_path_161" fill="none" stroke="rgb(115, 161, 191)" stroke-width="1" d="M689.5,322.5C674.5,322.5,674.5,548.5,659.5,548.5L592.5,548.5"></path><path id="kity_path_163" fill="none" stroke="rgb(115, 161, 191)" stroke-width="1" d="M689.5,322.5C674.5,322.5,674.5,600.5,659.5,600.5L580.5,600.5"></path><path id="kity_path_165" fill="none" stroke="rgb(115, 161, 191)" stroke-width="1" d="M798.5,501.5C783.5,501.5,783.5,656.5,768.5,656.5L669.5,656.5"></path><path id="kity_path_167" fill="none" stroke="rgb(115, 161, 191)" stroke-width="1" d="M798.5,501.5C783.5,501.5,783.5,708.5,768.5,708.5L689.5,708.5"></path><path id="kity_path_810" fill="none" stroke="rgb(115, 161, 191)" stroke-width="1" d="M558.5,130.5C543.5,130.5,543.5,154.5,528.5,154.5L36.5,154.5"></path></g><g id="minder_node1"><path id="node_outline1" fill="rgb(115, 161, 191)" stroke="rgb(115, 161, 191)" d="M1231.5,1116.5h114a5,5,0,0,1,5,5v31a5,5,0,0,1,-5,5h-114a5,5,0,0,1,-5,-5v-31a5,5,0,0,1,5,-5z" stroke-width="3"></path><g id="node_text1" fill="white"><text id="kity_text_22" text-rendering="inherit" font-size="16" dy=".8em" y="1126.0999999046326" x="1250.5">速卖通</text></g><g id="kity_g_527" style="cursor: pointer;"><path id="kity_path_528" fill="none" stroke="none" d="M1313,1128h12a2,2,0,0,1,2,2v13a2,2,0,0,1,-2,2h-12a2,2,0,0,1,-2,-2v-13a2,2,0,0,1,2,-2z"></path><path id="kity_path_529" fill="white" stroke="none" d="M1322,1139H1316V1138h6L1322,1139L1322,1139zM1322,1137H1316V1136h6V1137zM1322,1135H1316V1134h6V1135zM1321.5,1141H1315V1132h8v7.5M1322,1142l2,-2V1131H1314v11"></path></g></g><g id="kity_g_12"><path id="kity_path_13" fill="none" stroke="none" d="M1250.5,1136.5h0v0h0z"></path></g><g id="kity_g_14"><path id="kity_path_15" fill="none" stroke="none" d="M1250.5,1136.5h0v0h0z"></path><path id="kity_path_16" fill="none" stroke="none"></path></g><g id="minder_node2"><g id="node_expander23" style="cursor: pointer;"><path id="kity_path_666" fill="white" stroke="gray" d="M1637.5,617.5A6,6,0,1,1,1625.5,617.5A6,6,0,1,1,1637.5,617.5"></path><path id="kity_path_667" fill="none" stroke="gray" d="M1627,617.5L1636,617.5"></path></g><path id="node_outline24" fill="rgb(238, 243, 246)" stroke="rgb(115, 161, 191)" d="M1641.5,600.5h121a3,3,0,0,1,3,3v28a3,3,0,0,1,-3,3h-121a3,3,0,0,1,-3,-3v-28a3,3,0,0,1,3,-3z" stroke-width="1"></path><g id="node_text24" fill="black"><text id="kity_text_213" text-rendering="inherit" font-size="14" dy=".8em" y="608.4000000953674" x="1658.5">产品上架</text></g><a id="kity_a_434" xlink:href="http://oa.kokoerp.com/index.php?c=ctrl_interhtml&amp;a=index&amp;view=inside" target="_blank" xlink:title="http://oa.kokoerp.com/index.php?c=ctrl_interhtml&amp;a=index&amp;view=inside" style="cursor: pointer;"><path id="kity_path_436" fill="rgba(255, 255, 255, 0)" stroke="none" d="M1725.5,606.5h16a4,4,0,0,1,4,4v14a4,4,0,0,1,-4,4h-16a4,4,0,0,1,-4,-4v-14a4,4,0,0,1,4,-4z"></path><path id="kity_path_435" fill="#666" stroke="none" d="M1740.114,622.724h-1.278c-1.668,0,-3.07,-1.07,-3.599,-2.556h4.877c0.707,0,1.278,-0.571,1.278,-1.278V616.334c0,-0.707,-0.571,-1.278,-1.278,-1.278h-4.877C1735.766,613.571,1737.168,612.5,1738.836,612.5h1.278c2.116,0,3.834,1.716,3.834,3.834V618.89C1743.948,621.008,1742.23,622.724,1740.114,622.724zM1728.612,617.612c0,-0.707,0.573,-1.278,1.278,-1.278h7.668c0.707,0,1.278,0.571,1.278,1.278S1738.265,618.89,1737.558,618.89H1729.89C1729.185,618.89,1728.612,618.319,1728.612,617.612zM1726.056,616.334V618.89c0,0.707,0.573,1.278,1.278,1.278h4.877c-0.528,1.486,-1.932,2.556,-3.599,2.556H1727.334C1725.216,622.724,1723.5,621.008,1723.5,618.89V616.334C1723.5,614.216,1725.216,612.5,1727.334,612.5h1.278c1.667,0,3.071,1.071,3.599,2.556H1727.334C1726.629,615.056,1726.056,615.627,1726.056,616.334z"></path></a></g><g id="minder_node3"><g id="node_expander1" style="cursor: pointer;" display="none"><path id="kity_path_600" fill="white" stroke="gray" d="M1805.5,142.5A6,6,0,1,1,1793.5,142.5A6,6,0,1,1,1805.5,142.5"></path><path id="kity_path_601" fill="none" stroke="gray"></path></g><path id="node_outline2" fill="none" stroke="none" d="M1810.5,127.5h131a5,5,0,0,1,5,5v20a5,5,0,0,1,-5,5h-131a5,5,0,0,1,-5,-5v-20a5,5,0,0,1,5,-5z"></path><g id="node_text2" fill="black"><text id="kity_text_169" text-rendering="inherit" font-size="12" dy=".8em" y="134.70000004768372" x="1840.5">主管分配产品SKU</text></g><g id="node_priority1"><path id="kity_path_308" fill="#840023" stroke="none" d="M1816,146c0,3.866,3.134,7,7,7h6c3.866,0,7,-3.134,7,-7V140H1816V146z"></path><path id="kity_path_309" fill="#FF1200" stroke="none" d="M1836,143c0,3.866,-3.134,7,-7,7H1823c-3.866,0,-7,-3.134,-7,-7V140c0,-3.866,3.134,-7,7,-7h6c3.866,0,7,3.134,7,7V143z" opacity="0.8"></path><text id="kity_text_310" text-rendering="geometricPrecision" x="1825" y="142.5" text-anchor="middle" font-style="italic" font-size="12" fill="white" dy="5">1</text></g></g><g id="minder_node4"><g id="node_expander2" style="cursor: pointer;" display="none"><path id="kity_path_603" fill="white" stroke="gray" d="M1805.5,203.5A6,6,0,1,1,1793.5,203.5A6,6,0,1,1,1805.5,203.5"></path><path id="kity_path_604" fill="none" stroke="gray"></path></g><path id="node_outline3" fill="none" stroke="none" d="M1810.5,187.5h180a5,5,0,0,1,5,5v22a5,5,0,0,1,-5,5h-180a5,5,0,0,1,-5,-5v-22a5,5,0,0,1,5,-5z"></path><g id="node_text3" fill="black"><text id="kity_text_171" text-rendering="inherit" font-size="12" dy=".8em" y="195.70000004768372" x="1840.5">erp后台获取产品资料</text></g><g id="node_priority2"><path id="kity_path_313" fill="#01467F" stroke="none" d="M1816,207c0,3.866,3.134,7,7,7h6c3.866,0,7,-3.134,7,-7V201H1816V207z"></path><path id="kity_path_314" fill="#0074FF" stroke="none" d="M1836,204c0,3.866,-3.134,7,-7,7H1823c-3.866,0,-7,-3.134,-7,-7V201c0,-3.866,3.134,-7,7,-7h6c3.866,0,7,3.134,7,7V204z" opacity="0.8"></path><text id="kity_text_315" text-rendering="geometricPrecision" x="1825" y="203.5" text-anchor="middle" font-style="italic" font-size="12" fill="white" dy="5">2</text></g><a id="kity_a_416" xlink:href="http://192.168.5.5:802/showsku/index" target="_blank" xlink:title="http://192.168.5.5:802/showsku/index" style="cursor: pointer;"><path id="kity_path_418" fill="rgba(255, 255, 255, 0)" stroke="none" d="M1965.5,192.5h16a4,4,0,0,1,4,4v14a4,4,0,0,1,-4,4h-16a4,4,0,0,1,-4,-4v-14a4,4,0,0,1,4,-4z"></path><path id="kity_path_417" fill="#666" stroke="none" d="M1980.114,208.724h-1.278c-1.668,0,-3.07,-1.07,-3.599,-2.556h4.877c0.707,0,1.278,-0.571,1.278,-1.278V202.334c0,-0.707,-0.571,-1.278,-1.278,-1.278h-4.877C1975.766,199.571,1977.168,198.5,1978.836,198.5h1.278c2.116,0,3.834,1.716,3.834,3.834V204.89C1983.948,207.008,1982.23,208.724,1980.114,208.724zM1968.612,203.612c0,-0.707,0.573,-1.278,1.278,-1.278h7.668c0.707,0,1.278,0.571,1.278,1.278S1978.265,204.89,1977.558,204.89H1969.89C1969.185,204.89,1968.612,204.319,1968.612,203.612zM1966.056,202.334V204.89c0,0.707,0.573,1.278,1.278,1.278h4.877c-0.528,1.486,-1.932,2.556,-3.599,2.556H1967.334C1965.216,208.724,1963.5,207.008,1963.5,204.89V202.334C1963.5,200.216,1965.216,198.5,1967.334,198.5h1.278c1.667,0,3.071,1.071,3.599,2.556H1967.334C1966.629,201.056,1966.056,201.627,1966.056,202.334z"></path></a></g><g id="minder_node5"><g id="node_expander3" style="cursor: pointer;" display="none"><path id="kity_path_606" fill="white" stroke="gray" d="M1805.5,265.5A6,6,0,1,1,1793.5,265.5A6,6,0,1,1,1805.5,265.5"></path><path id="kity_path_607" fill="none" stroke="gray"></path></g><path id="node_outline4" fill="none" stroke="none" d="M1810.5,249.5h187a5,5,0,0,1,5,5v22a5,5,0,0,1,-5,5h-187a5,5,0,0,1,-5,-5v-22a5,5,0,0,1,5,-5z"></path><g id="node_text4" fill="black"><text id="kity_text_173" text-rendering="inherit" font-size="12" dy=".8em" y="257.7000000476837" x="1840.5">SMT卖家后台填写资料</text></g><g id="node_priority3"><path id="kity_path_318" fill="#006300" stroke="none" d="M1816,269c0,3.866,3.134,7,7,7h6c3.866,0,7,-3.134,7,-7V263H1816V269z"></path><path id="kity_path_319" fill="#00AF00" stroke="none" d="M1836,266c0,3.866,-3.134,7,-7,7H1823c-3.866,0,-7,-3.134,-7,-7V263c0,-3.866,3.134,-7,7,-7h6c3.866,0,7,3.134,7,7V266z" opacity="0.8"></path><text id="kity_text_320" text-rendering="geometricPrecision" x="1825" y="265.5" text-anchor="middle" font-style="italic" font-size="12" fill="white" dy="5">3</text></g><a id="kity_a_419" xlink:href="http://post.aliexpress.com/item/category.htm?SPM_B_CONTEXT_KEY=ae_offer_item_post_product&amp;dataLocale=zh_CN&amp;isLocalPost=N&amp;headPart=%3C%21--+menu+begin+11.183.145.27--%3E%0D%0A%09%09%09++++++++%3Cli+%3E%0D%0A++++++++++++%3Ca+id%3D%22headMenu_default%22++href%3D%22http%3A%2F%2Fmyae.aliexpress.com%2Findex.htm%22+%3E%E6%88%91%E7%9A%84%E9%80%9F%E5%8D%96%E9%80%9A%3C%2Fa%3E%0D%0A++++++++%3C%2Fli%3E%0D%0A%09%09%09%09%09%09++++++++%3Cli+%3E%0D%0A++++++++++++%3Ca+id%3D%22headMenu_wantSell%22++href%3D%22http%3A%2F%2Fposting.aliexpress.com%22+%3E%E4%BA%A7%E5%93%81%E7%AE%A1%E7%90%86%3C%2Fa%3E%0D%0A++++++++%3C%2Fli%3E%0D%0A%09%09%09%09%09%09++++++++%3Cli+%3E%0D%0A++++++++++++%3Ca+id%3D%22headMenu_escrow%22++href%3D%22http%3A%2F%2Ftrade.aliexpress.com%2ForderList.htm%22+%3E%E4%BA%A4%E6%98%93%3C%2Fa%3E%0D%0A++++++++%3C%2Fli%3E%0D%0A%09%09%09%09%09%09++++++++%3Cli+%3E%0D%0A++++++++++++%3Ca+id%3D%22headMenu_myaliexpress_message%22++href%3D%22http%3A%2F%2Fmsg.aliexpress.com%22+%3E%E6%B6%88%E6%81%AF%E4%B8%AD%E5%BF%83%3C%2Fa%3E%0D%0A++++++++%3C%2Fli%3E%0D%0A%09%09%09%09%09%09++++++++%3Cli+%3E%0D%0A++++++++++++%3Ca+id%3D%22headMenu_storeManagement%22++href%3D%22http%3A%2F%2Fmyae.aliexpress.com%2Fstorecenter%2FsellerServiceLevelCenter.htm%22+%3E%E5%BA%97%E9%93%BA%3C%2Fa%3E%0D%0A++++++++%3C%2Fli%3E%0D%0A%09%09%09%09%09%09++++++++%3Cli+%3E%0D%0A++++++++++++%3Ca+id%3D%22headMenu_account%22++href%3D%22http%3A%2F%2Fmyae.aliexpress.com%2Fseller%2Faccount%2FaccountPortal.htm%22+%3E%E8%B4%A6%E5%8F%B7%E5%8F%8A%E8%AE%A4%E8%AF%81%3C%2Fa%3E%0D%0A++++++++%3C%2Fli%3E%0D%0A%09%09%09%09%09%09++++++++%3Cli+%3E%0D%0A++++++++++++%3Ca+id%3D%22headMenu_myScore%22++href%3D%22https%3A%2F%2Fmypromotion.aliexpress.com%2Findex.htm%22+%3E%E8%90%A5%E9%94%80%E6%B4%BB%E5%8A%A8%3C%2Fa%3E%0D%0A++++++++%3C%2Fli%3E%0D%0A%09%09%09%09%09%09++++++++%3Cli+%3E%0D%0A++++++++++++%3Ca+id%3D%22headMenu_dataMatrix%22++href%3D%22http%3A%2F%2Fdatamatrix.aliexpress.com%2FdataMatrixHome.htm%22+%3E%E6%95%B0%E6%8D%AE%E7%BA%B5%E6%A8%AA%3C%2Fa%3E%0D%0A++++++++%3C%2Fli%3E%0D%0A%09%09%09%09%09%09++++++++%3Cli+%3E%0D%0A++++++++++++%3Ca+id%3D%22headMenu_performance%22++href%3D%22http%3A%2F%2Freport.aliexpress.com%2Fhealth%2Fpunish%2FpunishList.htm%22+%3E%E7%BB%8F%E8%90%A5%E8%A1%A8%E7%8E%B0%3C%2Fa%3E%0D%0A++++++++%3C%2Fli%3E%0D%0A%09%09%09%0D%0A%0D%0A%3C%21--+menu+end+--%3E" target="_blank" xlink:title="http://post.aliexpress.com/item/category.htm?SPM_B_CONTEXT_KEY=ae_offer_item_post_product&amp;dataLocale=zh_CN&amp;isLocalPost=N&amp;headPart=%3C%21--+menu+begin+11.183.145.27--%3E%0D%0A%09%09%09++++++++%3Cli+%3E%0D%0A++++++++++++%3Ca+id%3D%22headMenu_default%22++href%3D%22http%3A%2F%2Fmyae.aliexpress.com%2Findex.htm%22+%3E%E6%88%91%E7%9A%84%E9%80%9F%E5%8D%96%E9%80%9A%3C%2Fa%3E%0D%0A++++++++%3C%2Fli%3E%0D%0A%09%09%09%09%09%09++++++++%3Cli+%3E%0D%0A++++++++++++%3Ca+id%3D%22headMenu_wantSell%22++href%3D%22http%3A%2F%2Fposting.aliexpress.com%22+%3E%E4%BA%A7%E5%93%81%E7%AE%A1%E7%90%86%3C%2Fa%3E%0D%0A++++++++%3C%2Fli%3E%0D%0A%09%09%09%09%09%09++++++++%3Cli+%3E%0D%0A++++++++++++%3Ca+id%3D%22headMenu_escrow%22++href%3D%22http%3A%2F%2Ftrade.aliexpress.com%2ForderList.htm%22+%3E%E4%BA%A4%E6%98%93%3C%2Fa%3E%0D%0A++++++++%3C%2Fli%3E%0D%0A%09%09%09%09%09%09++++++++%3Cli+%3E%0D%0A++++++++++++%3Ca+id%3D%22headMenu_myaliexpress_message%22++href%3D%22http%3A%2F%2Fmsg.aliexpress.com%22+%3E%E6%B6%88%E6%81%AF%E4%B8%AD%E5%BF%83%3C%2Fa%3E%0D%0A++++++++%3C%2Fli%3E%0D%0A%09%09%09%09%09%09++++++++%3Cli+%3E%0D%0A++++++++++++%3Ca+id%3D%22headMenu_storeManagement%22++href%3D%22http%3A%2F%2Fmyae.aliexpress.com%2Fstorecenter%2FsellerServiceLevelCenter.htm%22+%3E%E5%BA%97%E9%93%BA%3C%2Fa%3E%0D%0A++++++++%3C%2Fli%3E%0D%0A%09%09%09%09%09%09++++++++%3Cli+%3E%0D%0A++++++++++++%3Ca+id%3D%22headMenu_account%22++href%3D%22http%3A%2F%2Fmyae.aliexpress.com%2Fseller%2Faccount%2FaccountPortal.htm%22+%3E%E8%B4%A6%E5%8F%B7%E5%8F%8A%E8%AE%A4%E8%AF%81%3C%2Fa%3E%0D%0A++++++++%3C%2Fli%3E%0D%0A%09%09%09%09%09%09++++++++%3Cli+%3E%0D%0A++++++++++++%3Ca+id%3D%22headMenu_myScore%22++href%3D%22https%3A%2F%2Fmypromotion.aliexpress.com%2Findex.htm%22+%3E%E8%90%A5%E9%94%80%E6%B4%BB%E5%8A%A8%3C%2Fa%3E%0D%0A++++++++%3C%2Fli%3E%0D%0A%09%09%09%09%09%09++++++++%3Cli+%3E%0D%0A++++++++++++%3Ca+id%3D%22headMenu_dataMatrix%22++href%3D%22http%3A%2F%2Fdatamatrix.aliexpress.com%2FdataMatrixHome.htm%22+%3E%E6%95%B0%E6%8D%AE%E7%BA%B5%E6%A8%AA%3C%2Fa%3E%0D%0A++++++++%3C%2Fli%3E%0D%0A%09%09%09%09%09%09++++++++%3Cli+%3E%0D%0A++++++++++++%3Ca+id%3D%22headMenu_performance%22++href%3D%22http%3A%2F%2Freport.aliexpress.com%2Fhealth%2Fpunish%2FpunishList.htm%22+%3E%E7%BB%8F%E8%90%A5%E8%A1%A8%E7%8E%B0%3C%2Fa%3E%0D%0A++++++++%3C%2Fli%3E%0D%0A%09%09%09%0D%0A%0D%0A%3C%21--+menu+end+--%3E" style="cursor: pointer;"><path id="kity_path_421" fill="rgba(255, 255, 255, 0)" stroke="none" d="M1972.5,254.5h16a4,4,0,0,1,4,4v14a4,4,0,0,1,-4,4h-16a4,4,0,0,1,-4,-4v-14a4,4,0,0,1,4,-4z"></path><path id="kity_path_420" fill="#666" stroke="none" d="M1987.114,270.724h-1.278c-1.668,0,-3.07,-1.07,-3.599,-2.556h4.877c0.707,0,1.278,-0.571,1.278,-1.278V264.334c0,-0.707,-0.571,-1.278,-1.278,-1.278h-4.877C1982.766,261.571,1984.168,260.5,1985.836,260.5h1.278c2.116,0,3.834,1.716,3.834,3.834V266.89C1990.948,269.008,1989.23,270.724,1987.114,270.724zM1975.612,265.612c0,-0.707,0.573,-1.278,1.278,-1.278h7.668c0.707,0,1.278,0.571,1.278,1.278S1985.265,266.89,1984.558,266.89H1976.89C1976.185,266.89,1975.612,266.319,1975.612,265.612zM1973.056,264.334V266.89c0,0.707,0.573,1.278,1.278,1.278h4.877c-0.528,1.486,-1.932,2.556,-3.599,2.556H1974.334C1972.216,270.724,1970.5,269.008,1970.5,266.89V264.334C1970.5,262.216,1972.216,260.5,1974.334,260.5h1.278c1.667,0,3.071,1.071,3.599,2.556H1974.334C1973.629,263.056,1973.056,263.627,1973.056,264.334z"></path></a></g><g id="minder_node6"><g id="node_expander4" style="cursor: pointer;" display="none"><path id="kity_path_609" fill="white" stroke="gray" d="M1805.5,326.5A6,6,0,1,1,1793.5,326.5A6,6,0,1,1,1805.5,326.5"></path><path id="kity_path_610" fill="none" stroke="gray"></path></g><path id="node_outline5" fill="none" stroke="none" d="M1810.5,311.5h129a5,5,0,0,1,5,5v20a5,5,0,0,1,-5,5h-129a5,5,0,0,1,-5,-5v-20a5,5,0,0,1,5,-5z"></path><g id="node_text5" fill="black"><text id="kity_text_175" text-rendering="inherit" font-size="12" dy=".8em" y="318.7000000476837" x="1840.5">计算商品利润</text></g><g id="node_priority4"><path id="kity_path_323" fill="#B25000" stroke="none" d="M1816,330c0,3.866,3.134,7,7,7h6c3.866,0,7,-3.134,7,-7V324H1816V330z"></path><path id="kity_path_324" fill="#FF962E" stroke="none" d="M1836,327c0,3.866,-3.134,7,-7,7H1823c-3.866,0,-7,-3.134,-7,-7V324c0,-3.866,3.134,-7,7,-7h6c3.866,0,7,3.134,7,7V327z" opacity="0.8"></path><text id="kity_text_325" text-rendering="geometricPrecision" x="1825" y="326.5" text-anchor="middle" font-style="italic" font-size="12" fill="white" dy="5">4</text></g><g id="kity_g_458" style="cursor: pointer;"><path id="kity_path_459" fill="none" stroke="none" d="M1921,318h12a2,2,0,0,1,2,2v13a2,2,0,0,1,-2,2h-12a2,2,0,0,1,-2,-2v-13a2,2,0,0,1,2,-2z"></path><path id="kity_path_460" fill="black" stroke="none" d="M1930,329H1924V328h6L1930,329L1930,329zM1930,327H1924V326h6V327zM1930,325H1924V324h6V325zM1929.5,331H1923V322h8v7.5M1930,332l2,-2V321H1922v11"></path></g></g><g id="minder_node7"><g id="node_expander5" style="cursor: pointer;" display="none"><path id="kity_path_612" fill="white" stroke="gray" d="M1805.5,387.5A6,6,0,1,1,1793.5,387.5A6,6,0,1,1,1805.5,387.5"></path><path id="kity_path_613" fill="none" stroke="gray"></path></g><path id="node_outline6" fill="none" stroke="none" d="M1810.5,371.5h245a5,5,0,0,1,5,5v22a5,5,0,0,1,-5,5h-245a5,5,0,0,1,-5,-5v-22a5,5,0,0,1,5,-5z"></path><g id="node_text6" fill="black"><text id="kity_text_177" text-rendering="inherit" font-size="12" dy=".8em" y="379.7000000476837" x="1840.5">产品分入打折促销组（营销分组）</text></g><g id="node_priority5"><path id="kity_path_328" fill="#4720C4" stroke="none" d="M1816,391c0,3.866,3.134,7,7,7h6c3.866,0,7,-3.134,7,-7V385H1816V391z"></path><path id="kity_path_329" fill="#A464FF" stroke="none" d="M1836,388c0,3.866,-3.134,7,-7,7H1823c-3.866,0,-7,-3.134,-7,-7V385c0,-3.866,3.134,-7,7,-7h6c3.866,0,7,3.134,7,7V388z" opacity="0.8"></path><text id="kity_text_330" text-rendering="geometricPrecision" x="1825" y="387.5" text-anchor="middle" font-style="italic" font-size="12" fill="white" dy="5">5</text></g><a id="kity_a_422" xlink:href="https://mypromotion.aliexpress.com/store/marketinggroup/list.htm" target="_blank" xlink:title="https://mypromotion.aliexpress.com/store/marketinggroup/list.htm" style="cursor: pointer;"><path id="kity_path_424" fill="rgba(255, 255, 255, 0)" stroke="none" d="M2030.5,376.5h16a4,4,0,0,1,4,4v14a4,4,0,0,1,-4,4h-16a4,4,0,0,1,-4,-4v-14a4,4,0,0,1,4,-4z"></path><path id="kity_path_423" fill="#666" stroke="none" d="M2045.114,392.724h-1.278c-1.668,0,-3.07,-1.07,-3.599,-2.556h4.877c0.707,0,1.278,-0.571,1.278,-1.278V386.334c0,-0.707,-0.571,-1.278,-1.278,-1.278h-4.877C2040.766,383.571,2042.168,382.5,2043.836,382.5h1.278c2.116,0,3.834,1.716,3.834,3.834V388.89C2048.948,391.008,2047.23,392.724,2045.114,392.724zM2033.612,387.612c0,-0.707,0.573,-1.278,1.278,-1.278h7.668c0.707,0,1.278,0.571,1.278,1.278S2043.265,388.89,2042.558,388.89H2034.89C2034.185,388.89,2033.612,388.319,2033.612,387.612zM2031.056,386.334V388.89c0,0.707,0.573,1.278,1.278,1.278h4.877c-0.528,1.486,-1.932,2.556,-3.599,2.556H2032.334C2030.216,392.724,2028.5,391.008,2028.5,388.89V386.334C2028.5,384.216,2030.216,382.5,2032.334,382.5h1.278c1.667,0,3.071,1.071,3.599,2.556H2032.334C2031.629,385.056,2031.056,385.627,2031.056,386.334z"></path></a></g><g id="minder_node8"><g id="node_expander14" style="cursor: pointer;"><path id="kity_path_639" fill="white" stroke="gray" d="M1805.5,660.5A6,6,0,1,1,1793.5,660.5A6,6,0,1,1,1805.5,660.5"></path><path id="kity_path_640" fill="none" stroke="gray" d="M1795,660.5L1804,660.5"></path></g><path id="node_outline15" fill="none" stroke="none" d="M1810.5,649.5h60a5,5,0,0,1,5,5v12a5,5,0,0,1,-5,5h-60a5,5,0,0,1,-5,-5v-12a5,5,0,0,1,5,-5z"></path><g id="node_text15" fill="black"><text id="kity_text_195" text-rendering="inherit" font-size="12" dy=".8em" y="652.7000000476837" x="1815.5">产品覆盖</text></g></g><g id="minder_node9"><g id="node_expander6" style="cursor: pointer;" display="none"><path id="kity_path_615" fill="white" stroke="gray" d="M1915.5,449.5A6,6,0,1,1,1903.5,449.5A6,6,0,1,1,1915.5,449.5"></path><path id="kity_path_616" fill="none" stroke="gray"></path></g><path id="node_outline7" fill="none" stroke="none" d="M1920.5,433.5h162a5,5,0,0,1,5,5v22a5,5,0,0,1,-5,5h-162a5,5,0,0,1,-5,-5v-22a5,5,0,0,1,5,-5z"></path><g id="node_text7" fill="black"><text id="kity_text_179" text-rendering="inherit" font-size="12" dy=".8em" y="441.7000000476837" x="1950.5">打开全球交易助手</text></g><g id="node_priority6"><path id="kity_path_333" fill="#840023" stroke="none" d="M1926,453c0,3.866,3.134,7,7,7h6c3.866,0,7,-3.134,7,-7V447H1926V453z"></path><path id="kity_path_334" fill="#FF1200" stroke="none" d="M1946,450c0,3.866,-3.134,7,-7,7H1933c-3.866,0,-7,-3.134,-7,-7V447c0,-3.866,3.134,-7,7,-7h6c3.866,0,7,3.134,7,7V450z" opacity="0.8"></path><text id="kity_text_335" text-rendering="geometricPrecision" x="1935" y="449.5" text-anchor="middle" font-style="italic" font-size="12" fill="white" dy="5">1</text></g><a id="kity_a_425" xlink:href="https://www.cnfth.com/" target="_blank" xlink:title="请下载并注册(https://www.cnfth.com/)" style="cursor: pointer;"><path id="kity_path_427" fill="rgba(255, 255, 255, 0)" stroke="none" d="M2057.5,438.5h16a4,4,0,0,1,4,4v14a4,4,0,0,1,-4,4h-16a4,4,0,0,1,-4,-4v-14a4,4,0,0,1,4,-4z"></path><path id="kity_path_426" fill="#666" stroke="none" d="M2072.114,454.724h-1.278c-1.668,0,-3.07,-1.07,-3.599,-2.556h4.877c0.707,0,1.278,-0.571,1.278,-1.278V448.334c0,-0.707,-0.571,-1.278,-1.278,-1.278h-4.877C2067.766,445.571,2069.168,444.5,2070.836,444.5h1.278c2.116,0,3.834,1.716,3.834,3.834V450.89C2075.948,453.008,2074.23,454.724,2072.114,454.724zM2060.612,449.612c0,-0.707,0.573,-1.278,1.278,-1.278h7.668c0.707,0,1.278,0.571,1.278,1.278S2070.265,450.89,2069.558,450.89H2061.89C2061.185,450.89,2060.612,450.319,2060.612,449.612zM2058.056,448.334V450.89c0,0.707,0.573,1.278,1.278,1.278h4.877c-0.528,1.486,-1.932,2.556,-3.599,2.556H2059.334C2057.216,454.724,2055.5,453.008,2055.5,450.89V448.334C2055.5,446.216,2057.216,444.5,2059.334,444.5h1.278c1.667,0,3.071,1.071,3.599,2.556H2059.334C2058.629,447.056,2058.056,447.627,2058.056,448.334z"></path></a></g><g id="minder_node10"><g id="node_expander7" style="cursor: pointer;" display="none"><path id="kity_path_618" fill="white" stroke="gray" d="M1915.5,510.5A6,6,0,1,1,1903.5,510.5A6,6,0,1,1,1915.5,510.5"></path><path id="kity_path_619" fill="none" stroke="gray"></path></g><path id="node_outline8" fill="none" stroke="none" d="M1920.5,495.5h208a5,5,0,0,1,5,5v20a5,5,0,0,1,-5,5h-208a5,5,0,0,1,-5,-5v-20a5,5,0,0,1,5,-5z"></path><g id="node_text8" fill="black"><text id="kity_text_181" text-rendering="inherit" font-size="12" dy=".8em" y="502.7000000476837" x="1950.5">同步自己的店铺数据，导出Excel</text></g><g id="node_priority7"><path id="kity_path_338" fill="#01467F" stroke="none" d="M1926,514c0,3.866,3.134,7,7,7h6c3.866,0,7,-3.134,7,-7V508H1926V514z"></path><path id="kity_path_339" fill="#0074FF" stroke="none" d="M1946,511c0,3.866,-3.134,7,-7,7H1933c-3.866,0,-7,-3.134,-7,-7V508c0,-3.866,3.134,-7,7,-7h6c3.866,0,7,3.134,7,7V511z" opacity="0.8"></path><text id="kity_text_340" text-rendering="geometricPrecision" x="1935" y="510.5" text-anchor="middle" font-style="italic" font-size="12" fill="white" dy="5">2</text></g></g><g id="minder_node11"><g id="node_expander8" style="cursor: pointer;" display="none"><path id="kity_path_621" fill="white" stroke="gray" d="M1915.5,570.5A6,6,0,1,1,1903.5,570.5A6,6,0,1,1,1915.5,570.5"></path><path id="kity_path_622" fill="none" stroke="gray"></path></g><path id="node_outline9" fill="none" stroke="none" d="M1920.5,555.5h190a5,5,0,0,1,5,5v20a5,5,0,0,1,-5,5h-190a5,5,0,0,1,-5,-5v-20a5,5,0,0,1,5,-5z"></path><g id="node_text9" fill="black"><text id="kity_text_183" text-rendering="inherit" font-size="12" dy=".8em" y="562.7000000476837" x="1950.5">获取他人店铺的店铺授权</text></g><g id="node_priority8"><path id="kity_path_343" fill="#006300" stroke="none" d="M1926,574c0,3.866,3.134,7,7,7h6c3.866,0,7,-3.134,7,-7V568H1926V574z"></path><path id="kity_path_344" fill="#00AF00" stroke="none" d="M1946,571c0,3.866,-3.134,7,-7,7H1933c-3.866,0,-7,-3.134,-7,-7V568c0,-3.866,3.134,-7,7,-7h6c3.866,0,7,3.134,7,7V571z" opacity="0.8"></path><text id="kity_text_345" text-rendering="geometricPrecision" x="1935" y="570.5" text-anchor="middle" font-style="italic" font-size="12" fill="white" dy="5">3</text></g><g id="kity_g_461" style="cursor: pointer;"><path id="kity_path_462" fill="none" stroke="none" d="M2092,562h12a2,2,0,0,1,2,2v13a2,2,0,0,1,-2,2h-12a2,2,0,0,1,-2,-2v-13a2,2,0,0,1,2,-2z"></path><path id="kity_path_463" fill="black" stroke="none" d="M2101,573H2095V572h6L2101,573L2101,573zM2101,571H2095V570h6V571zM2101,569H2095V568h6V569zM2100.5,575H2094V566h8v7.5M2101,576l2,-2V565H2093v11"></path></g></g><g id="minder_node12"><g id="node_expander9" style="cursor: pointer;" display="none"><path id="kity_path_624" fill="white" stroke="gray" d="M1915.5,630.5A6,6,0,1,1,1903.5,630.5A6,6,0,1,1,1915.5,630.5"></path><path id="kity_path_625" fill="none" stroke="gray"></path></g><path id="node_outline10" fill="none" stroke="none" d="M1920.5,615.5h252a5,5,0,0,1,5,5v20a5,5,0,0,1,-5,5h-252a5,5,0,0,1,-5,-5v-20a5,5,0,0,1,5,-5z"></path><g id="node_text10" fill="black"><text id="kity_text_185" text-rendering="inherit" font-size="12" dy=".8em" y="622.7000000476837" x="1950.5">同步他人店铺的指定产品ID到本地数据库</text></g><g id="node_priority9"><path id="kity_path_348" fill="#B25000" stroke="none" d="M1926,634c0,3.866,3.134,7,7,7h6c3.866,0,7,-3.134,7,-7V628H1926V634z"></path><path id="kity_path_349" fill="#FF962E" stroke="none" d="M1946,631c0,3.866,-3.134,7,-7,7H1933c-3.866,0,-7,-3.134,-7,-7V628c0,-3.866,3.134,-7,7,-7h6c3.866,0,7,3.134,7,7V631z" opacity="0.8"></path><text id="kity_text_350" text-rendering="geometricPrecision" x="1935" y="630.5" text-anchor="middle" font-style="italic" font-size="12" fill="white" dy="5">4</text></g></g><g id="minder_node13"><g id="node_expander10" style="cursor: pointer;" display="none"><path id="kity_path_627" fill="white" stroke="gray" d="M1915.5,691.5A6,6,0,1,1,1903.5,691.5A6,6,0,1,1,1915.5,691.5"></path><path id="kity_path_628" fill="none" stroke="gray"></path></g><path id="node_outline11" fill="none" stroke="none" d="M1920.5,675.5h245a5,5,0,0,1,5,5v22a5,5,0,0,1,-5,5h-245a5,5,0,0,1,-5,-5v-22a5,5,0,0,1,5,-5z"></path><g id="node_text11" fill="black"><text id="kity_text_187" text-rendering="inherit" font-size="12" dy=".8em" y="683.7000000476837" x="1950.5">登入自己店铺选着从其他店铺导入</text></g><g id="node_priority10"><path id="kity_path_353" fill="#4720C4" stroke="none" d="M1926,695c0,3.866,3.134,7,7,7h6c3.866,0,7,-3.134,7,-7V689H1926V695z"></path><path id="kity_path_354" fill="#A464FF" stroke="none" d="M1946,692c0,3.866,-3.134,7,-7,7H1933c-3.866,0,-7,-3.134,-7,-7V689c0,-3.866,3.134,-7,7,-7h6c3.866,0,7,3.134,7,7V692z" opacity="0.8"></path><text id="kity_text_355" text-rendering="geometricPrecision" x="1935" y="691.5" text-anchor="middle" font-style="italic" font-size="12" fill="white" dy="5">5</text></g><a id="kity_a_428" xlink:href="http://ooc.youkeshu.com/decode.php" target="_blank" xlink:title="分离sku到不同列，获取（“listing ID,价格，sku，库存，打包数”）(http://ooc.youkeshu.com/decode.php)" style="cursor: pointer;"><path id="kity_path_430" fill="rgba(255, 255, 255, 0)" stroke="none" d="M2140.5,680.5h16a4,4,0,0,1,4,4v14a4,4,0,0,1,-4,4h-16a4,4,0,0,1,-4,-4v-14a4,4,0,0,1,4,-4z"></path><path id="kity_path_429" fill="#666" stroke="none" d="M2155.114,696.724h-1.278c-1.668,0,-3.07,-1.07,-3.599,-2.556h4.877c0.707,0,1.278,-0.571,1.278,-1.278V690.334c0,-0.707,-0.571,-1.278,-1.278,-1.278h-4.877C2150.766,687.571,2152.168,686.5,2153.836,686.5h1.278c2.116,0,3.834,1.716,3.834,3.834V692.89C2158.948,695.008,2157.23,696.724,2155.114,696.724zM2143.612,691.612c0,-0.707,0.573,-1.278,1.278,-1.278h7.668c0.707,0,1.278,0.571,1.278,1.278S2153.265,692.89,2152.558,692.89H2144.89C2144.185,692.89,2143.612,692.319,2143.612,691.612zM2141.056,690.334V692.89c0,0.707,0.573,1.278,1.278,1.278h4.877c-0.528,1.486,-1.932,2.556,-3.599,2.556H2142.334C2140.216,696.724,2138.5,695.008,2138.5,692.89V690.334C2138.5,688.216,2140.216,686.5,2142.334,686.5h1.278c1.667,0,3.071,1.071,3.599,2.556H2142.334C2141.629,689.056,2141.056,689.627,2141.056,690.334z"></path></a></g><g id="minder_node14"><g id="node_expander11" style="cursor: pointer;" display="none"><path id="kity_path_630" fill="white" stroke="gray" d="M1915.5,752.5A6,6,0,1,1,1903.5,752.5A6,6,0,1,1,1915.5,752.5"></path><path id="kity_path_631" fill="none" stroke="gray"></path></g><path id="node_outline12" fill="none" stroke="none" d="M1920.5,737.5h190a5,5,0,0,1,5,5v20a5,5,0,0,1,-5,5h-190a5,5,0,0,1,-5,-5v-20a5,5,0,0,1,5,-5z"></path><g id="node_text12" fill="black"><text id="kity_text_189" text-rendering="inherit" font-size="12" dy=".8em" y="744.7000000476837" x="1950.5">修改产品价格和部分数据</text></g><g id="node_priority11"><path id="kity_path_358" fill="#515151" stroke="none" d="M1926,756c0,3.866,3.134,7,7,7h6c3.866,0,7,-3.134,7,-7V750H1926V756z"></path><path id="kity_path_359" fill="#A3A3A3" stroke="none" d="M1946,753c0,3.866,-3.134,7,-7,7H1933c-3.866,0,-7,-3.134,-7,-7V750c0,-3.866,3.134,-7,7,-7h6c3.866,0,7,3.134,7,7V753z" opacity="0.8"></path><text id="kity_text_360" text-rendering="geometricPrecision" x="1935" y="752.5" text-anchor="middle" font-style="italic" font-size="12" fill="white" dy="5">6</text></g><g id="kity_g_464" style="cursor: pointer;"><path id="kity_path_465" fill="none" stroke="none" d="M2092,744h12a2,2,0,0,1,2,2v13a2,2,0,0,1,-2,2h-12a2,2,0,0,1,-2,-2v-13a2,2,0,0,1,2,-2z"></path><path id="kity_path_466" fill="black" stroke="none" d="M2101,755H2095V754h6L2101,755L2101,755zM2101,753H2095V752h6V753zM2101,751H2095V750h6V751zM2100.5,757H2094V748h8v7.5M2101,758l2,-2V747H2093v11"></path></g></g><g id="minder_node15"><g id="node_expander12" style="cursor: pointer;" display="none"><path id="kity_path_633" fill="white" stroke="gray" d="M1915.5,812.5A6,6,0,1,1,1903.5,812.5A6,6,0,1,1,1915.5,812.5"></path><path id="kity_path_634" fill="none" stroke="gray"></path></g><path id="node_outline13" fill="none" stroke="none" d="M1920.5,797.5h156a5,5,0,0,1,5,5v20a5,5,0,0,1,-5,5h-156a5,5,0,0,1,-5,-5v-20a5,5,0,0,1,5,-5z"></path><g id="node_text13" fill="black"><text id="kity_text_191" text-rendering="inherit" font-size="12" dy=".8em" y="804.7000000476837" x="1950.5">保存为草稿后批量发布</text></g><g id="node_priority12"><path id="kity_path_363" fill="#515151" stroke="none" d="M1926,816c0,3.866,3.134,7,7,7h6c3.866,0,7,-3.134,7,-7V810H1926V816z"></path><path id="kity_path_364" fill="#A3A3A3" stroke="none" d="M1946,813c0,3.866,-3.134,7,-7,7H1933c-3.866,0,-7,-3.134,-7,-7V810c0,-3.866,3.134,-7,7,-7h6c3.866,0,7,3.134,7,7V813z" opacity="0.8"></path><text id="kity_text_365" text-rendering="geometricPrecision" x="1935" y="812.5" text-anchor="middle" font-style="italic" font-size="12" fill="white" dy="5">7</text></g></g><g id="minder_node16"><g id="node_expander13" style="cursor: pointer;" display="none"><path id="kity_path_636" fill="white" stroke="gray" d="M1915.5,872.5A6,6,0,1,1,1903.5,872.5A6,6,0,1,1,1915.5,872.5"></path><path id="kity_path_637" fill="none" stroke="gray"></path></g><path id="node_outline14" fill="none" stroke="none" d="M1920.5,857.5h145a5,5,0,0,1,5,5v20a5,5,0,0,1,-5,5h-145a5,5,0,0,1,-5,-5v-20a5,5,0,0,1,5,-5z"></path><g id="node_text14" fill="black"><text id="kity_text_193" text-rendering="inherit" font-size="12" dy=".8em" y="864.7000000476837" x="1950.5">添加产品到营销分组</text></g><g id="node_priority13"><path id="kity_path_368" fill="#515151" stroke="none" d="M1926,876c0,3.866,3.134,7,7,7h6c3.866,0,7,-3.134,7,-7V870H1926V876z"></path><path id="kity_path_369" fill="#A3A3A3" stroke="none" d="M1946,873c0,3.866,-3.134,7,-7,7H1933c-3.866,0,-7,-3.134,-7,-7V870c0,-3.866,3.134,-7,7,-7h6c3.866,0,7,3.134,7,7V873z" opacity="0.8"></path><text id="kity_text_370" text-rendering="geometricPrecision" x="1935" y="872.5" text-anchor="middle" font-style="italic" font-size="12" fill="white" dy="5">8</text></g></g><g id="minder_node17"><g id="node_expander22" style="cursor: pointer;"><path id="kity_path_663" fill="white" stroke="gray" d="M1805.5,1096.5A6,6,0,1,1,1793.5,1096.5A6,6,0,1,1,1805.5,1096.5"></path><path id="kity_path_664" fill="none" stroke="gray" d="M1795,1096.5L1804,1096.5"></path></g><path id="node_outline23" fill="none" stroke="none" d="M1810.5,1085.5h96a5,5,0,0,1,5,5v12a5,5,0,0,1,-5,5h-96a5,5,0,0,1,-5,-5v-12a5,5,0,0,1,5,-5z"></path><g id="node_text23" fill="black"><text id="kity_text_211" text-rendering="inherit" font-size="12" dy=".8em" y="1088.7000000476837" x="1815.5">添加虚拟海外仓</text></g></g><g id="minder_node18"><g id="node_expander15" style="cursor: pointer;" display="none"><path id="kity_path_642" fill="white" stroke="gray" d="M1951.5,928.5A6,6,0,1,1,1939.5,928.5A6,6,0,1,1,1951.5,928.5"></path><path id="kity_path_643" fill="none" stroke="gray"></path></g><path id="node_outline16" fill="none" stroke="none" d="M1956.5,917.5h227a5,5,0,0,1,5,5v12a5,5,0,0,1,-5,5h-227a5,5,0,0,1,-5,-5v-12a5,5,0,0,1,5,-5z"></path><g id="node_text16" fill="black"><text id="kity_text_197" text-rendering="inherit" font-size="12" dy=".8em" y="920.7000000476837" x="1961.5">打开交易助手，导出产品listingID数据包</text></g></g><g id="minder_node19"><g id="node_expander16" style="cursor: pointer;" display="none"><path id="kity_path_645" fill="white" stroke="gray" d="M1951.5,983A6,6,0,1,1,1939.5,983A6,6,0,1,1,1951.5,983"></path><path id="kity_path_646" fill="none" stroke="gray"></path></g><path id="node_outline17" fill="none" stroke="none" d="M1956.5,969.5h166a5,5,0,0,1,5,5v17a5,5,0,0,1,-5,5h-166a5,5,0,0,1,-5,-5v-17a5,5,0,0,1,5,-5z"></path><g id="node_text17" fill="black"><text id="kity_text_199" text-rendering="inherit" font-size="12" dy=".8em" y="974.7000000476837" x="1961.5">打开decode工具分离sku</text></g><g id="kity_g_467" style="cursor: pointer;"><path id="kity_path_468" fill="none" stroke="none" d="M2104,974h12a2,2,0,0,1,2,2v13a2,2,0,0,1,-2,2h-12a2,2,0,0,1,-2,-2v-13a2,2,0,0,1,2,-2z"></path><path id="kity_path_469" fill="black" stroke="none" d="M2113,985H2107V984h6L2113,985L2113,985zM2113,983H2107V982h6V983zM2113,981H2107V980h6V981zM2112.5,987H2106V978h8v7.5M2113,988l2,-2V977H2105v11"></path></g></g><g id="minder_node20"><g id="node_expander17" style="cursor: pointer;" display="none"><path id="kity_path_648" fill="white" stroke="gray" d="M1963.5,1037.5A6,6,0,1,1,1951.5,1037.5A6,6,0,1,1,1963.5,1037.5"></path><path id="kity_path_649" fill="none" stroke="gray"></path></g><path id="node_outline18" fill="none" stroke="none" d="M1968.5,1026.5h168a5,5,0,0,1,5,5v12a5,5,0,0,1,-5,5h-168a5,5,0,0,1,-5,-5v-12a5,5,0,0,1,5,-5z"></path><g id="node_text18" fill="black"><text id="kity_text_201" text-rendering="inherit" font-size="12" dy=".8em" y="1029.7000000476837" x="1973.5">在虚拟仓运费模板中进行试算</text></g></g><g id="minder_node21"><g id="node_expander18" style="cursor: pointer;" display="none"><path id="kity_path_651" fill="white" stroke="gray" d="M1951.5,1094.5A6,6,0,1,1,1939.5,1094.5A6,6,0,1,1,1951.5,1094.5"></path><path id="kity_path_652" fill="none" stroke="gray"></path></g><path id="node_outline19" fill="none" stroke="none" d="M1956.5,1078.5h408a5,5,0,0,1,5,5v22a5,5,0,0,1,-5,5h-408a5,5,0,0,1,-5,-5v-22a5,5,0,0,1,5,-5z"></path><g id="node_text19" fill="black"><text id="kity_text_203" text-rendering="inherit" font-size="12" dy=".8em" y="1086.7000000476837" x="1961.5">获取海外仓上传模板,粘贴价格，库存，sku商家编码到模板后上传</text></g><a id="kity_a_431" xlink:href="http://smtzd.kokoerp.com/index.php/Smtfighter/CreateListingTemplate/skustockprice" target="_blank" xlink:title="http://smtzd.kokoerp.com/index.php/Smtfighter/CreateListingTemplate/skustockprice" style="cursor: pointer;"><path id="kity_path_433" fill="rgba(255, 255, 255, 0)" stroke="none" d="M2318.5,1083.5h16a4,4,0,0,1,4,4v14a4,4,0,0,1,-4,4h-16a4,4,0,0,1,-4,-4v-14a4,4,0,0,1,4,-4z"></path><path id="kity_path_432" fill="#666" stroke="none" d="M2333.114,1099.724h-1.278c-1.668,0,-3.07,-1.07,-3.599,-2.556h4.877c0.707,0,1.278,-0.571,1.278,-1.278V1093.334c0,-0.707,-0.571,-1.278,-1.278,-1.278h-4.877C2328.766,1090.571,2330.168,1089.5,2331.836,1089.5h1.278c2.116,0,3.834,1.716,3.834,3.834V1095.89C2336.948,1098.008,2335.23,1099.724,2333.114,1099.724zM2321.612,1094.612c0,-0.707,0.573,-1.278,1.278,-1.278h7.668c0.707,0,1.278,0.571,1.278,1.278S2331.265,1095.89,2330.558,1095.89H2322.89C2322.185,1095.89,2321.612,1095.319,2321.612,1094.612zM2319.056,1093.334V1095.89c0,0.707,0.573,1.278,1.278,1.278h4.877c-0.528,1.486,-1.932,2.556,-3.599,2.556H2320.334C2318.216,1099.724,2316.5,1098.008,2316.5,1095.89V1093.334C2316.5,1091.216,2318.216,1089.5,2320.334,1089.5h1.278c1.667,0,3.071,1.071,3.599,2.556H2320.334C2319.629,1092.056,2319.056,1092.627,2319.056,1093.334z"></path></a><g id="kity_g_470" style="cursor: pointer;"><path id="kity_path_471" fill="none" stroke="none" d="M2346,1086h12a2,2,0,0,1,2,2v13a2,2,0,0,1,-2,2h-12a2,2,0,0,1,-2,-2v-13a2,2,0,0,1,2,-2z"></path><path id="kity_path_472" fill="black" stroke="none" d="M2355,1097H2349V1096h6L2355,1097L2355,1097zM2355,1095H2349V1094h6V1095zM2355,1093H2349V1092h6V1093zM2354.5,1099H2348V1090h8v7.5M2355,1100l2,-2V1089H2347v11"></path></g></g><g id="minder_node22"><g id="node_expander19" style="cursor: pointer;" display="none"><path id="kity_path_654" fill="white" stroke="gray" d="M1951.5,1154A6,6,0,1,1,1939.5,1154A6,6,0,1,1,1951.5,1154"></path><path id="kity_path_655" fill="none" stroke="gray"></path></g><path id="node_outline20" fill="none" stroke="none" d="M1956.5,1140.5h263a5,5,0,0,1,5,5v17a5,5,0,0,1,-5,5h-263a5,5,0,0,1,-5,-5v-17a5,5,0,0,1,5,-5z"></path><g id="node_text20" fill="black"><text id="kity_text_205" text-rendering="inherit" font-size="12" dy=".8em" y="1145.7000000476837" x="1961.5">将生成的新products文件放入数据压缩包中</text></g><g id="kity_g_473" style="cursor: pointer;"><path id="kity_path_474" fill="none" stroke="none" d="M2201,1145h12a2,2,0,0,1,2,2v13a2,2,0,0,1,-2,2h-12a2,2,0,0,1,-2,-2v-13a2,2,0,0,1,2,-2z"></path><path id="kity_path_475" fill="black" stroke="none" d="M2210,1156H2204V1155h6L2210,1156L2210,1156zM2210,1154H2204V1153h6V1154zM2210,1152H2204V1151h6V1152zM2209.5,1158H2203V1149h8v7.5M2210,1159l2,-2V1148H2202v11"></path></g></g><g id="minder_node23"><g id="node_expander20" style="cursor: pointer;" display="none"><path id="kity_path_657" fill="white" stroke="gray" d="M1951.5,1208.5A6,6,0,1,1,1939.5,1208.5A6,6,0,1,1,1951.5,1208.5"></path><path id="kity_path_658" fill="none" stroke="gray"></path></g><path id="node_outline21" fill="none" stroke="none" d="M1956.5,1197.5h227a5,5,0,0,1,5,5v12a5,5,0,0,1,-5,5h-227a5,5,0,0,1,-5,-5v-12a5,5,0,0,1,5,-5z"></path><g id="node_text21" fill="black"><text id="kity_text_207" text-rendering="inherit" font-size="12" dy=".8em" y="1200.7000000476837" x="1961.5">导入数据包交易助手修改listing运费模板</text></g></g><g id="minder_node24"><g id="node_expander21" style="cursor: pointer;" display="none"><path id="kity_path_660" fill="white" stroke="gray" d="M1977.5,1272A6,6,0,1,1,1965.5,1272A6,6,0,1,1,1977.5,1272"></path><path id="kity_path_661" fill="none" stroke="gray"></path></g><path id="node_outline22" fill="none" stroke="none" d="M1982.5,1258.5h104a5,5,0,0,1,5,5v17a5,5,0,0,1,-5,5h-104a5,5,0,0,1,-5,-5v-17a5,5,0,0,1,5,-5z"></path><g id="node_text22" fill="black"><text id="kity_text_209" text-rendering="inherit" font-size="12" dy=".8em" y="1263.7000000476837" x="1987.5">批量发布产品</text></g><g id="kity_g_476" style="cursor: pointer;"><path id="kity_path_477" fill="none" stroke="none" d="M2068,1263h12a2,2,0,0,1,2,2v13a2,2,0,0,1,-2,2h-12a2,2,0,0,1,-2,-2v-13a2,2,0,0,1,2,-2z"></path><path id="kity_path_478" fill="black" stroke="none" d="M2077,1274H2071V1273h6L2077,1274L2077,1274zM2077,1272H2071V1271h6V1272zM2077,1270H2071V1269h6V1270zM2076.5,1276H2070V1267h8v7.5M2077,1277l2,-2V1266H2069v11"></path></g></g><g id="minder_node25"><g id="node_expander28" style="cursor: pointer;"><path id="kity_path_681" fill="white" stroke="gray" d="M641.5,1155A6,6,0,1,1,629.5,1155A6,6,0,1,1,641.5,1155"></path><path id="kity_path_682" fill="none" stroke="gray" d="M631,1155L640,1155"></path></g><path id="node_outline29" fill="rgb(238, 243, 246)" stroke="rgb(115, 161, 191)" d="M645.5,1140.5h85a3,3,0,0,1,3,3v23a3,3,0,0,1,-3,3h-85a3,3,0,0,1,-3,-3v-23a3,3,0,0,1,3,-3z" stroke-width="1"></path><g id="node_text29" fill="black"><text id="kity_text_223" text-rendering="inherit" font-size="14" dy=".8em" y="1145.4000000953674" x="662.5">违规</text></g><g id="kity_g_485" style="cursor: pointer;"><path id="kity_path_486" fill="none" stroke="none" d="M700,1146h12a2,2,0,0,1,2,2v13a2,2,0,0,1,-2,2h-12a2,2,0,0,1,-2,-2v-13a2,2,0,0,1,2,-2z"></path><path id="kity_path_487" fill="black" stroke="none" d="M709,1157H703V1156h6L709,1157L709,1157zM709,1155H703V1154h6V1155zM709,1153H703V1152h6V1153zM708.5,1159H702V1150h8v7.5M709,1160l2,-2V1149H701v11"></path></g></g><g id="minder_node26"><g id="node_expander24" style="cursor: pointer;" display="none"><path id="kity_path_669" fill="white" stroke="gray" d="M614.5,1064.5A6,6,0,1,1,602.5,1064.5A6,6,0,1,1,614.5,1064.5"></path><path id="kity_path_670" fill="none" stroke="gray"></path></g><path id="node_outline25" fill="none" stroke="none" d="M464.5,1049.5h133a5,5,0,0,1,5,5v20a5,5,0,0,1,-5,5h-133a5,5,0,0,1,-5,-5v-20a5,5,0,0,1,5,-5z"></path><g id="node_text25" fill="black"><text id="kity_text_215" text-rendering="inherit" font-size="12" dy=".8em" y="1056.7000000476837" x="494.5">商品信息质量违规</text></g><g id="node_priority14"><path id="kity_path_373" fill="#840023" stroke="none" d="M470,1068c0,3.866,3.134,7,7,7h6c3.866,0,7,-3.134,7,-7V1062H470V1068z"></path><path id="kity_path_374" fill="#FF1200" stroke="none" d="M490,1065c0,3.866,-3.134,7,-7,7H477c-3.866,0,-7,-3.134,-7,-7V1062c0,-3.866,3.134,-7,7,-7h6c3.866,0,7,3.134,7,7V1065z" opacity="0.8"></path><text id="kity_text_375" text-rendering="geometricPrecision" x="479" y="1064.5" text-anchor="middle" font-style="italic" font-size="12" fill="white" dy="5">1</text></g></g><g id="minder_node27"><g id="node_expander25" style="cursor: pointer;" display="none"><path id="kity_path_672" fill="white" stroke="gray" d="M614.5,1125.5A6,6,0,1,1,602.5,1125.5A6,6,0,1,1,614.5,1125.5"></path><path id="kity_path_673" fill="none" stroke="gray"></path></g><path id="node_outline26" fill="none" stroke="none" d="M402.5,1109.5h195a5,5,0,0,1,5,5v22a5,5,0,0,1,-5,5h-195a5,5,0,0,1,-5,-5v-22a5,5,0,0,1,5,-5z"></path><g id="node_text26" fill="black"><text id="kity_text_217" text-rendering="inherit" font-size="12" dy=".8em" y="1117.7000000476837" x="432.5">知识产权禁限售违规</text></g><g id="node_priority15"><path id="kity_path_378" fill="#01467F" stroke="none" d="M408,1129c0,3.866,3.134,7,7,7h6c3.866,0,7,-3.134,7,-7V1123H408V1129z"></path><path id="kity_path_379" fill="#0074FF" stroke="none" d="M428,1126c0,3.866,-3.134,7,-7,7H415c-3.866,0,-7,-3.134,-7,-7V1123c0,-3.866,3.134,-7,7,-7h6c3.866,0,7,3.134,7,7V1126z" opacity="0.8"></path><text id="kity_text_380" text-rendering="geometricPrecision" x="417" y="1125.5" text-anchor="middle" font-style="italic" font-size="12" fill="white" dy="5">2</text></g><a id="kity_a_437" xlink:href="https://sell.aliexpress.com/zh/__pc/ipr_rules.htm?spm=5261.report_q6vv3_s.0.0.6329788bqGwNFH" target="_blank" xlink:title="https://sell.aliexpress.com/zh/__pc/ipr_rules.htm?spm=5261.report_q6vv3_s.0.0.6329788bqGwNFH" style="cursor: pointer;"><path id="kity_path_439" fill="rgba(255, 255, 255, 0)" stroke="none" d="M551.5,1114.5h16a4,4,0,0,1,4,4v14a4,4,0,0,1,-4,4h-16a4,4,0,0,1,-4,-4v-14a4,4,0,0,1,4,-4z"></path><path id="kity_path_438" fill="#666" stroke="none" d="M566.114,1130.724h-1.278c-1.668,0,-3.07,-1.07,-3.599,-2.556h4.877c0.707,0,1.278,-0.571,1.278,-1.278V1124.334c0,-0.707,-0.571,-1.278,-1.278,-1.278h-4.877C561.766,1121.571,563.168,1120.5,564.836,1120.5h1.278c2.116,0,3.834,1.716,3.834,3.834V1126.89C569.948,1129.008,568.23,1130.724,566.114,1130.724zM554.612,1125.612c0,-0.707,0.573,-1.278,1.278,-1.278h7.668c0.707,0,1.278,0.571,1.278,1.278S564.265,1126.89,563.558,1126.89H555.89C555.185,1126.89,554.612,1126.319,554.612,1125.612zM552.056,1124.334V1126.89c0,0.707,0.573,1.278,1.278,1.278h4.877c-0.528,1.486,-1.932,2.556,-3.599,2.556H553.334C551.216,1130.724,549.5,1129.008,549.5,1126.89V1124.334C549.5,1122.216,551.216,1120.5,553.334,1120.5h1.278c1.667,0,3.071,1.071,3.599,2.556H553.334C552.629,1123.056,552.056,1123.627,552.056,1124.334z"></path></a><g id="kity_g_479" style="cursor: pointer;"><path id="kity_path_480" fill="none" stroke="none" d="M579,1117h12a2,2,0,0,1,2,2v13a2,2,0,0,1,-2,2h-12a2,2,0,0,1,-2,-2v-13a2,2,0,0,1,2,-2z"></path><path id="kity_path_481" fill="black" stroke="none" d="M588,1128H582V1127h6L588,1128L588,1128zM588,1126H582V1125h6V1126zM588,1124H582V1123h6V1124zM587.5,1130H581V1121h8v7.5M588,1131l2,-2V1120H580v11"></path></g></g><g id="minder_node28"><g id="node_expander26" style="cursor: pointer;" display="none"><path id="kity_path_675" fill="white" stroke="gray" d="M614.5,1186.5A6,6,0,1,1,602.5,1186.5A6,6,0,1,1,614.5,1186.5"></path><path id="kity_path_676" fill="none" stroke="gray"></path></g><path id="node_outline27" fill="none" stroke="none" d="M476.5,1171.5h121a5,5,0,0,1,5,5v20a5,5,0,0,1,-5,5h-121a5,5,0,0,1,-5,-5v-20a5,5,0,0,1,5,-5z" stroke-width="3"></path><g id="node_text27" fill="black"><text id="kity_text_219" text-rendering="inherit" font-size="12" dy=".8em" y="1178.7000000476837" x="506.5">交易违规及其他</text></g><g id="node_priority16"><path id="kity_path_383" fill="#006300" stroke="none" d="M482,1190c0,3.866,3.134,7,7,7h6c3.866,0,7,-3.134,7,-7V1184H482V1190z"></path><path id="kity_path_384" fill="#00AF00" stroke="none" d="M502,1187c0,3.866,-3.134,7,-7,7H489c-3.866,0,-7,-3.134,-7,-7V1184c0,-3.866,3.134,-7,7,-7h6c3.866,0,7,3.134,7,7V1187z" opacity="0.8"></path><text id="kity_text_385" text-rendering="geometricPrecision" x="491" y="1186.5" text-anchor="middle" font-style="italic" font-size="12" fill="white" dy="5">3</text></g></g><g id="minder_node29"><g id="node_expander27" style="cursor: pointer;" display="none"><path id="kity_path_678" fill="white" stroke="gray" d="M614.5,1246.5A6,6,0,1,1,602.5,1246.5A6,6,0,1,1,614.5,1246.5"></path><path id="kity_path_679" fill="none" stroke="gray"></path></g><path id="node_outline28" fill="none" stroke="none" d="M443.5,1231.5h154a5,5,0,0,1,5,5v20a5,5,0,0,1,-5,5h-154a5,5,0,0,1,-5,-5v-20a5,5,0,0,1,5,-5z" stroke-width="3"></path><g id="node_text28" fill="black"><text id="kity_text_221" text-rendering="inherit" font-size="12" dy=".8em" y="1238.7000000476837" x="473.5">知识产权严重违规</text></g><g id="node_priority17"><path id="kity_path_388" fill="#B25000" stroke="none" d="M449,1250c0,3.866,3.134,7,7,7h6c3.866,0,7,-3.134,7,-7V1244H449V1250z"></path><path id="kity_path_389" fill="#FF962E" stroke="none" d="M469,1247c0,3.866,-3.134,7,-7,7H456c-3.866,0,-7,-3.134,-7,-7V1244c0,-3.866,3.134,-7,7,-7h6c3.866,0,7,3.134,7,7V1247z" opacity="0.8"></path><text id="kity_text_390" text-rendering="geometricPrecision" x="458" y="1246.5" text-anchor="middle" font-style="italic" font-size="12" fill="white" dy="5">4</text></g><g id="kity_g_482" style="cursor: pointer;"><path id="kity_path_483" fill="none" stroke="none" d="M579,1238h12a2,2,0,0,1,2,2v13a2,2,0,0,1,-2,2h-12a2,2,0,0,1,-2,-2v-13a2,2,0,0,1,2,-2z"></path><path id="kity_path_484" fill="black" stroke="none" d="M588,1249H582V1248h6L588,1249L588,1249zM588,1247H582V1246h6V1247zM588,1245H582V1244h6V1245zM587.5,1251H581V1242h8v7.5M588,1252l2,-2V1241H580v11"></path></g></g><g id="minder_node30"><g id="node_expander34" style="cursor: pointer;"><path id="kity_path_699" fill="white" stroke="gray" d="M691.5,1514.5A6,6,0,1,1,679.5,1514.5A6,6,0,1,1,691.5,1514.5"></path><path id="kity_path_700" fill="none" stroke="gray" d="M681,1514.5L690,1514.5"></path></g><path id="node_outline35" fill="rgb(238, 243, 246)" stroke="rgb(115, 161, 191)" d="M695.5,1501.5h92a3,3,0,0,1,3,3v20a3,3,0,0,1,-3,3h-92a3,3,0,0,1,-3,-3v-20a3,3,0,0,1,3,-3z" stroke-width="1"></path><g id="node_text35" fill="black"><text id="kity_text_235" text-rendering="inherit" font-size="14" dy=".8em" y="1505.4000000953674" x="712.5">涉及系统</text></g></g><g id="minder_node31"><g id="node_expander29" style="cursor: pointer;" display="none"><path id="kity_path_684" fill="white" stroke="gray" d="M664.5,1421.5A6,6,0,1,1,652.5,1421.5A6,6,0,1,1,664.5,1421.5"></path><path id="kity_path_685" fill="none" stroke="gray"></path></g><path id="node_outline30" fill="none" stroke="none" d="M533.5,1405.5h114a5,5,0,0,1,5,5v22a5,5,0,0,1,-5,5h-114a5,5,0,0,1,-5,-5v-22a5,5,0,0,1,5,-5z" stroke-width="3"></path><g id="node_text30" fill="black"><text id="kity_text_225" text-rendering="inherit" font-size="12" dy=".8em" y="1413.7000000476837" x="538.5">SMT卖家后台</text></g><a id="kity_a_440" xlink:href="https://sellercenter.aliexpress.com/seller/index.htm" target="_blank" xlink:title="https://sellercenter.aliexpress.com/seller/index.htm" style="cursor: pointer;"><path id="kity_path_442" fill="rgba(255, 255, 255, 0)" stroke="none" d="M622.5,1410.5h16a4,4,0,0,1,4,4v14a4,4,0,0,1,-4,4h-16a4,4,0,0,1,-4,-4v-14a4,4,0,0,1,4,-4z"></path><path id="kity_path_441" fill="#666" stroke="none" d="M637.114,1426.724h-1.278c-1.668,0,-3.07,-1.07,-3.599,-2.556h4.877c0.707,0,1.278,-0.571,1.278,-1.278V1420.334c0,-0.707,-0.571,-1.278,-1.278,-1.278h-4.877C632.766,1417.571,634.168,1416.5,635.836,1416.5h1.278c2.116,0,3.834,1.716,3.834,3.834V1422.89C640.948,1425.008,639.23,1426.724,637.114,1426.724zM625.612,1421.612c0,-0.707,0.573,-1.278,1.278,-1.278h7.668c0.707,0,1.278,0.571,1.278,1.278S635.265,1422.89,634.558,1422.89H626.89C626.185,1422.89,625.612,1422.319,625.612,1421.612zM623.056,1420.334V1422.89c0,0.707,0.573,1.278,1.278,1.278h4.877c-0.528,1.486,-1.932,2.556,-3.599,2.556H624.334C622.216,1426.724,620.5,1425.008,620.5,1422.89V1420.334C620.5,1418.216,622.216,1416.5,624.334,1416.5h1.278c1.667,0,3.071,1.071,3.599,2.556H624.334C623.629,1419.056,623.056,1419.627,623.056,1420.334z"></path></a></g><g id="minder_node32"><g id="node_expander30" style="cursor: pointer;" display="none"><path id="kity_path_687" fill="white" stroke="gray" d="M664.5,1483.5A6,6,0,1,1,652.5,1483.5A6,6,0,1,1,664.5,1483.5"></path><path id="kity_path_688" fill="none" stroke="gray"></path></g><path id="node_outline31" fill="none" stroke="none" d="M512.5,1467.5h135a5,5,0,0,1,5,5v22a5,5,0,0,1,-5,5h-135a5,5,0,0,1,-5,-5v-22a5,5,0,0,1,5,-5z" stroke-width="3"></path><g id="node_text31" fill="black"><text id="kity_text_227" text-rendering="inherit" font-size="12" dy=".8em" y="1475.7000000476837" x="517.5">SKU库存状态查询</text></g><a id="kity_a_443" xlink:href="http://hznewerp.youkeshu.com/stock" target="_blank" xlink:title="http://hznewerp.youkeshu.com/stock" style="cursor: pointer;"><path id="kity_path_445" fill="rgba(255, 255, 255, 0)" stroke="none" d="M622.5,1472.5h16a4,4,0,0,1,4,4v14a4,4,0,0,1,-4,4h-16a4,4,0,0,1,-4,-4v-14a4,4,0,0,1,4,-4z"></path><path id="kity_path_444" fill="#666" stroke="none" d="M637.114,1488.724h-1.278c-1.668,0,-3.07,-1.07,-3.599,-2.556h4.877c0.707,0,1.278,-0.571,1.278,-1.278V1482.334c0,-0.707,-0.571,-1.278,-1.278,-1.278h-4.877C632.766,1479.571,634.168,1478.5,635.836,1478.5h1.278c2.116,0,3.834,1.716,3.834,3.834V1484.89C640.948,1487.008,639.23,1488.724,637.114,1488.724zM625.612,1483.612c0,-0.707,0.573,-1.278,1.278,-1.278h7.668c0.707,0,1.278,0.571,1.278,1.278S635.265,1484.89,634.558,1484.89H626.89C626.185,1484.89,625.612,1484.319,625.612,1483.612zM623.056,1482.334V1484.89c0,0.707,0.573,1.278,1.278,1.278h4.877c-0.528,1.486,-1.932,2.556,-3.599,2.556H624.334C622.216,1488.724,620.5,1487.008,620.5,1484.89V1482.334C620.5,1480.216,622.216,1478.5,624.334,1478.5h1.278c1.667,0,3.071,1.071,3.599,2.556H624.334C623.629,1481.056,623.056,1481.627,623.056,1482.334z"></path></a></g><g id="minder_node33"><g id="node_expander31" style="cursor: pointer;" display="none"><path id="kity_path_690" fill="white" stroke="gray" d="M664.5,1545.5A6,6,0,1,1,652.5,1545.5A6,6,0,1,1,664.5,1545.5"></path><path id="kity_path_691" fill="none" stroke="gray"></path></g><path id="node_outline32" fill="none" stroke="none" d="M503.5,1529.5h144a5,5,0,0,1,5,5v22a5,5,0,0,1,-5,5h-144a5,5,0,0,1,-5,-5v-22a5,5,0,0,1,5,-5z" stroke-width="3"></path><g id="node_text32" fill="black"><text id="kity_text_229" text-rendering="inherit" font-size="12" dy=".8em" y="1537.7000000476837" x="508.5">老erp订单管理系统</text></g><a id="kity_a_446" xlink:href="http://192.168.5.32:801/My_erp_system.php" target="_blank" xlink:title="http://192.168.5.32:801/My_erp_system.php" style="cursor: pointer;"><path id="kity_path_448" fill="rgba(255, 255, 255, 0)" stroke="none" d="M622.5,1534.5h16a4,4,0,0,1,4,4v14a4,4,0,0,1,-4,4h-16a4,4,0,0,1,-4,-4v-14a4,4,0,0,1,4,-4z"></path><path id="kity_path_447" fill="#666" stroke="none" d="M637.114,1550.724h-1.278c-1.668,0,-3.07,-1.07,-3.599,-2.556h4.877c0.707,0,1.278,-0.571,1.278,-1.278V1544.334c0,-0.707,-0.571,-1.278,-1.278,-1.278h-4.877C632.766,1541.571,634.168,1540.5,635.836,1540.5h1.278c2.116,0,3.834,1.716,3.834,3.834V1546.89C640.948,1549.008,639.23,1550.724,637.114,1550.724zM625.612,1545.612c0,-0.707,0.573,-1.278,1.278,-1.278h7.668c0.707,0,1.278,0.571,1.278,1.278S635.265,1546.89,634.558,1546.89H626.89C626.185,1546.89,625.612,1546.319,625.612,1545.612zM623.056,1544.334V1546.89c0,0.707,0.573,1.278,1.278,1.278h4.877c-0.528,1.486,-1.932,2.556,-3.599,2.556H624.334C622.216,1550.724,620.5,1549.008,620.5,1546.89V1544.334C620.5,1542.216,622.216,1540.5,624.334,1540.5h1.278c1.667,0,3.071,1.071,3.599,2.556H624.334C623.629,1543.056,623.056,1543.627,623.056,1544.334z"></path></a></g><g id="minder_node34"><g id="node_expander32" style="cursor: pointer;" display="none"><path id="kity_path_693" fill="white" stroke="gray" d="M664.5,1607.5A6,6,0,1,1,652.5,1607.5A6,6,0,1,1,664.5,1607.5"></path><path id="kity_path_694" fill="none" stroke="gray"></path></g><path id="node_outline33" fill="none" stroke="none" d="M533.5,1591.5h114a5,5,0,0,1,5,5v22a5,5,0,0,1,-5,5h-114a5,5,0,0,1,-5,-5v-22a5,5,0,0,1,5,-5z" stroke-width="3"></path><g id="node_text33" fill="black"><text id="kity_text_231" text-rendering="inherit" font-size="12" dy=".8em" y="1599.7000000476837" x="538.5">新erp系统OA</text></g><a id="kity_a_449" xlink:href="http://192.168.5.5:802/showsku/index" target="_blank" xlink:title="现阶段主要是sku资料查询（上架SKU）(http://192.168.5.5:802/showsku/index)" style="cursor: pointer;"><path id="kity_path_451" fill="rgba(255, 255, 255, 0)" stroke="none" d="M622.5,1596.5h16a4,4,0,0,1,4,4v14a4,4,0,0,1,-4,4h-16a4,4,0,0,1,-4,-4v-14a4,4,0,0,1,4,-4z"></path><path id="kity_path_450" fill="#666" stroke="none" d="M637.114,1612.724h-1.278c-1.668,0,-3.07,-1.07,-3.599,-2.556h4.877c0.707,0,1.278,-0.571,1.278,-1.278V1606.334c0,-0.707,-0.571,-1.278,-1.278,-1.278h-4.877C632.766,1603.571,634.168,1602.5,635.836,1602.5h1.278c2.116,0,3.834,1.716,3.834,3.834V1608.89C640.948,1611.008,639.23,1612.724,637.114,1612.724zM625.612,1607.612c0,-0.707,0.573,-1.278,1.278,-1.278h7.668c0.707,0,1.278,0.571,1.278,1.278S635.265,1608.89,634.558,1608.89H626.89C626.185,1608.89,625.612,1608.319,625.612,1607.612zM623.056,1606.334V1608.89c0,0.707,0.573,1.278,1.278,1.278h4.877c-0.528,1.486,-1.932,2.556,-3.599,2.556H624.334C622.216,1612.724,620.5,1611.008,620.5,1608.89V1606.334C620.5,1604.216,622.216,1602.5,624.334,1602.5h1.278c1.667,0,3.071,1.071,3.599,2.556H624.334C623.629,1605.056,623.056,1605.627,623.056,1606.334z"></path></a></g><g id="minder_node36"><g id="node_expander49" style="cursor: pointer;"><path id="kity_path_744" fill="white" stroke="gray" d="M786.5,837.5A6,6,0,1,1,774.5,837.5A6,6,0,1,1,786.5,837.5"></path><path id="kity_path_745" fill="none" stroke="gray" d="M776,837.5L785,837.5"></path></g><path id="node_outline50" fill="rgb(238, 243, 246)" stroke="rgb(115, 161, 191)" d="M678.5,824.5h92a3,3,0,0,1,3,3v20a3,3,0,0,1,-3,3h-92a3,3,0,0,1,-3,-3v-20a3,3,0,0,1,3,-3z" stroke-width="1"></path><g id="node_text50" fill="black"><text id="kity_text_265" text-rendering="inherit" font-size="14" dy=".8em" y="828.4000000953674" x="695.5">售中问题</text></g></g><g id="minder_node37"><g id="node_expander48" style="cursor: pointer;"><path id="kity_path_741" fill="white" stroke="gray" d="M647.5,838A6,6,0,1,1,635.5,838A6,6,0,1,1,647.5,838"></path><path id="kity_path_742" fill="none" stroke="gray" d="M637,838L646,838"></path></g><path id="node_outline49" fill="none" stroke="none" d="M538.5,824.5h92a5,5,0,0,1,5,5v17a5,5,0,0,1,-5,5h-92a5,5,0,0,1,-5,-5v-17a5,5,0,0,1,5,-5z"></path><g id="node_text49" fill="black"><text id="kity_text_263" text-rendering="inherit" font-size="12" dy=".8em" y="829.7000000476837" x="543.5">处理待发货</text></g><g id="kity_g_494" style="cursor: pointer;"><path id="kity_path_495" fill="none" stroke="none" d="M612,829h12a2,2,0,0,1,2,2v13a2,2,0,0,1,-2,2h-12a2,2,0,0,1,-2,-2v-13a2,2,0,0,1,2,-2z"></path><path id="kity_path_496" fill="black" stroke="none" d="M621,840H615V839h6L621,840L621,840zM621,838H615V837h6V838zM621,836H615V835h6V836zM620.5,842H614V833h8v7.5M621,843l2,-2V832H613v11"></path></g></g><g id="minder_node38"><g id="node_expander37" style="cursor: pointer;"><path id="kity_path_708" fill="white" stroke="gray" d="M506.5,670.5A6,6,0,1,1,494.5,670.5A6,6,0,1,1,506.5,670.5"></path><path id="kity_path_709" fill="none" stroke="gray" d="M496,670.5L505,670.5"></path></g><path id="node_outline38" fill="none" stroke="none" d="M405.5,659.5h84a5,5,0,0,1,5,5v12a5,5,0,0,1,-5,5h-84a5,5,0,0,1,-5,-5v-12a5,5,0,0,1,5,-5z"></path><g id="node_text38" fill="black"><text id="kity_text_241" text-rendering="inherit" font-size="12" dy=".8em" y="662.7000000476837" x="410.5">直接发货订单</text></g></g><g id="minder_node39"><g id="node_expander36" style="cursor: pointer;"><path id="kity_path_705" fill="white" stroke="gray" d="M372.5,671A6,6,0,1,1,360.5,671A6,6,0,1,1,372.5,671"></path><path id="kity_path_706" fill="none" stroke="gray" d="M362,671L371,671"></path></g><path id="node_outline37" fill="none" stroke="none" d="M251.5,657.5h104a5,5,0,0,1,5,5v17a5,5,0,0,1,-5,5h-104a5,5,0,0,1,-5,-5v-17a5,5,0,0,1,5,-5z"></path><g id="node_text37" fill="black"><text id="kity_text_239" text-rendering="inherit" font-size="12" dy=".8em" y="662.7000000476837" x="256.5">填写发货通知</text></g><g id="kity_g_488" style="cursor: pointer;"><path id="kity_path_489" fill="none" stroke="none" d="M337,662h12a2,2,0,0,1,2,2v13a2,2,0,0,1,-2,2h-12a2,2,0,0,1,-2,-2v-13a2,2,0,0,1,2,-2z"></path><path id="kity_path_490" fill="black" stroke="none" d="M346,673H340V672h6L346,673L346,673zM346,671H340V670h6V671zM346,669H340V668h6V669zM345.5,675H339V666h8v7.5M346,676l2,-2V665H338v11"></path></g></g><g id="minder_node40"><g id="node_expander35" style="cursor: pointer;" display="none"><path id="kity_path_702" fill="white" stroke="gray" d="M218.5,671.5A6,6,0,1,1,206.5,671.5A6,6,0,1,1,218.5,671.5"></path><path id="kity_path_703" fill="none" stroke="gray"></path></g><path id="node_outline36" fill="none" stroke="none" d="M100.5,655.5h101a5,5,0,0,1,5,5v22a5,5,0,0,1,-5,5h-101a5,5,0,0,1,-5,-5v-22a5,5,0,0,1,5,-5z"></path><g id="node_text36" fill="black"><text id="kity_text_237" text-rendering="inherit" font-size="12" dy=".8em" y="663.7000000476837" x="105.5">追踪号获取</text></g><a id="kity_a_452" xlink:href="http://192.168.5.32:801/My_erp_system.php" target="_blank" xlink:title="追踪号获取平台(http://192.168.5.32:801/My_erp_system.php)" style="cursor: pointer;"><path id="kity_path_454" fill="rgba(255, 255, 255, 0)" stroke="none" d="M176.5,660.5h16a4,4,0,0,1,4,4v14a4,4,0,0,1,-4,4h-16a4,4,0,0,1,-4,-4v-14a4,4,0,0,1,4,-4z"></path><path id="kity_path_453" fill="#666" stroke="none" d="M191.114,676.724h-1.278c-1.668,0,-3.07,-1.07,-3.599,-2.556h4.877c0.707,0,1.278,-0.571,1.278,-1.278V670.334c0,-0.707,-0.571,-1.278,-1.278,-1.278h-4.877C186.766,667.571,188.168,666.5,189.836,666.5h1.278c2.116,0,3.834,1.716,3.834,3.834V672.89C194.948,675.008,193.23,676.724,191.114,676.724zM179.612,671.612c0,-0.707,0.573,-1.278,1.278,-1.278h7.668c0.707,0,1.278,0.571,1.278,1.278S189.265,672.89,188.558,672.89H180.89C180.185,672.89,179.612,672.319,179.612,671.612zM177.056,670.334V672.89c0,0.707,0.573,1.278,1.278,1.278h4.877c-0.528,1.486,-1.932,2.556,-3.599,2.556H178.334C176.216,676.724,174.5,675.008,174.5,672.89V670.334C174.5,668.216,176.216,666.5,178.334,666.5h1.278c1.667,0,3.071,1.071,3.599,2.556H178.334C177.629,669.056,177.056,669.627,177.056,670.334z"></path></a></g><g id="minder_node41"><g id="node_expander47" style="cursor: pointer;"><path id="kity_path_738" fill="white" stroke="gray" d="M490.5,891.5A6,6,0,1,1,478.5,891.5A6,6,0,1,1,490.5,891.5"></path><path id="kity_path_739" fill="none" stroke="gray" d="M480,891.5L489,891.5"></path></g><path id="node_outline48" fill="none" stroke="none" d="M401.5,880.5h72a5,5,0,0,1,5,5v12a5,5,0,0,1,-5,5h-72a5,5,0,0,1,-5,-5v-12a5,5,0,0,1,5,-5z"></path><g id="node_text48" fill="black"><text id="kity_text_261" text-rendering="inherit" font-size="12" dy=".8em" y="883.7000000476837" x="406.5">有问题订单</text></g></g><g id="minder_node42"><g id="node_expander40" style="cursor: pointer;"><path id="kity_path_717" fill="white" stroke="gray" d="M368.5,790.5A6,6,0,1,1,356.5,790.5A6,6,0,1,1,368.5,790.5"></path><path id="kity_path_718" fill="none" stroke="gray" d="M358,790.5L367,790.5"></path></g><path id="node_outline41" fill="none" stroke="none" d="M288.5,779.5h63a5,5,0,0,1,5,5v12a5,5,0,0,1,-5,5h-63a5,5,0,0,1,-5,-5v-12a5,5,0,0,1,5,-5z"></path><g id="node_text41" fill="black"><text id="kity_text_247" text-rendering="inherit" font-size="12" dy=".8em" y="782.7000000476837" x="293.5">订单类型&#xa0;</text></g></g><g id="minder_node43"><g id="node_expander38" style="cursor: pointer;" display="none"><path id="kity_path_711" fill="white" stroke="gray" d="M255.5,764.5A6,6,0,1,1,243.5,764.5A6,6,0,1,1,255.5,764.5"></path><path id="kity_path_712" fill="none" stroke="gray"></path></g><path id="node_outline39" fill="none" stroke="none" d="M178.5,753.5h60a5,5,0,0,1,5,5v12a5,5,0,0,1,-5,5h-60a5,5,0,0,1,-5,-5v-12a5,5,0,0,1,5,-5z"></path><g id="node_text39" fill="black"><text id="kity_text_243" text-rendering="inherit" font-size="12" dy=".8em" y="756.7000000476837" x="183.5">超期未发</text></g></g><g id="minder_node44"><g id="node_expander39" style="cursor: pointer;" display="none"><path id="kity_path_714" fill="white" stroke="gray" d="M255.5,816.5A6,6,0,1,1,243.5,816.5A6,6,0,1,1,255.5,816.5"></path><path id="kity_path_715" fill="none" stroke="gray"></path></g><path id="node_outline40" fill="none" stroke="none" d="M167.5,805.5h71a5,5,0,0,1,5,5v12a5,5,0,0,1,-5,5h-71a5,5,0,0,1,-5,-5v-12a5,5,0,0,1,5,-5z"></path><g id="node_text40" fill="black"><text id="kity_text_245" text-rendering="inherit" font-size="12" dy=".8em" y="808.7000000476837" x="172.5">审核不通过</text></g></g><g id="minder_node45"><g id="node_expander46" style="cursor: pointer;"><path id="kity_path_735" fill="white" stroke="gray" d="M368.5,992.5A6,6,0,1,1,356.5,992.5A6,6,0,1,1,368.5,992.5"></path><path id="kity_path_736" fill="none" stroke="gray" d="M358,992.5L367,992.5"></path></g><path id="node_outline47" fill="none" stroke="none" d="M291.5,981.5h60a5,5,0,0,1,5,5v12a5,5,0,0,1,-5,5h-60a5,5,0,0,1,-5,-5v-12a5,5,0,0,1,5,-5z"></path><g id="node_text47" fill="black"><text id="kity_text_259" text-rendering="inherit" font-size="12" dy=".8em" y="984.7000000476837" x="296.5">操作流程 </text></g></g><g id="minder_node46"><g id="node_expander41" style="cursor: pointer;" display="none"><path id="kity_path_720" fill="white" stroke="gray" d="M258.5,872.5A6,6,0,1,1,246.5,872.5A6,6,0,1,1,258.5,872.5"></path><path id="kity_path_721" fill="none" stroke="gray"></path></g><path id="node_outline42" fill="none" stroke="none" d="M136.5,857.5h105a5,5,0,0,1,5,5v20a5,5,0,0,1,-5,5h-105a5,5,0,0,1,-5,-5v-20a5,5,0,0,1,5,-5z"></path><g id="node_text42" fill="black"><text id="kity_text_249" text-rendering="inherit" font-size="12" dy=".8em" y="864.7000000476837" x="166.5">线上发货</text></g><g id="node_priority18"><path id="kity_path_393" fill="#840023" stroke="none" d="M142,876c0,3.866,3.134,7,7,7h6c3.866,0,7,-3.134,7,-7V870H142V876z"></path><path id="kity_path_394" fill="#FF1200" stroke="none" d="M162,873c0,3.866,-3.134,7,-7,7H149c-3.866,0,-7,-3.134,-7,-7V870c0,-3.866,3.134,-7,7,-7h6c3.866,0,7,3.134,7,7V873z" opacity="0.8"></path><text id="kity_text_395" text-rendering="geometricPrecision" x="151" y="872.5" text-anchor="middle" font-style="italic" font-size="12" fill="white" dy="5">1</text></g><g id="kity_g_491" style="cursor: pointer;"><path id="kity_path_492" fill="none" stroke="none" d="M223,864h12a2,2,0,0,1,2,2v13a2,2,0,0,1,-2,2h-12a2,2,0,0,1,-2,-2v-13a2,2,0,0,1,2,-2z"></path><path id="kity_path_493" fill="black" stroke="none" d="M232,875H226V874h6L232,875L232,875zM232,873H226V872h6V873zM232,871H226V870h6V871zM231.5,877H225V868h8v7.5M232,878l2,-2V867H224v11"></path></g></g><g id="minder_node47"><g id="node_expander42" style="cursor: pointer;" display="none"><path id="kity_path_723" fill="white" stroke="gray" d="M258.5,932.5A6,6,0,1,1,246.5,932.5A6,6,0,1,1,258.5,932.5"></path><path id="kity_path_724" fill="none" stroke="gray"></path></g><path id="node_outline43" fill="none" stroke="none" d="M25.5,917.5h216a5,5,0,0,1,5,5v20a5,5,0,0,1,-5,5h-216a5,5,0,0,1,-5,-5v-20a5,5,0,0,1,5,-5z"></path><g id="node_text43" fill="black"><text id="kity_text_251" text-rendering="inherit" font-size="12" dy=".8em" y="924.7000000476837" x="55.5">国际物流小包获取新的产品追踪号</text></g><g id="node_priority19"><path id="kity_path_398" fill="#01467F" stroke="none" d="M31,936c0,3.866,3.134,7,7,7h6c3.866,0,7,-3.134,7,-7V930H31V936z"></path><path id="kity_path_399" fill="#0074FF" stroke="none" d="M51,933c0,3.866,-3.134,7,-7,7H38c-3.866,0,-7,-3.134,-7,-7V930c0,-3.866,3.134,-7,7,-7h6c3.866,0,7,3.134,7,7V933z" opacity="0.8"></path><text id="kity_text_400" text-rendering="geometricPrecision" x="40" y="932.5" text-anchor="middle" font-style="italic" font-size="12" fill="white" dy="5">2</text></g></g><g id="minder_node48"><g id="node_expander43" style="cursor: pointer;" display="none"><path id="kity_path_726" fill="white" stroke="gray" d="M258.5,992.5A6,6,0,1,1,246.5,992.5A6,6,0,1,1,258.5,992.5"></path><path id="kity_path_727" fill="none" stroke="gray"></path></g><path id="node_outline44" fill="none" stroke="none" d="M93.5,977.5h148a5,5,0,0,1,5,5v20a5,5,0,0,1,-5,5h-148a5,5,0,0,1,-5,-5v-20a5,5,0,0,1,5,-5z"></path><g id="node_text44" fill="black"><text id="kity_text_253" text-rendering="inherit" font-size="12" dy=".8em" y="984.7000000476837" x="123.5">手动上传新的追踪号&#xa0;</text></g><g id="node_priority20"><path id="kity_path_403" fill="#006300" stroke="none" d="M99,996c0,3.866,3.134,7,7,7h6c3.866,0,7,-3.134,7,-7V990H99V996z"></path><path id="kity_path_404" fill="#00AF00" stroke="none" d="M119,993c0,3.866,-3.134,7,-7,7H106c-3.866,0,-7,-3.134,-7,-7V990c0,-3.866,3.134,-7,7,-7h6c3.866,0,7,3.134,7,7V993z" opacity="0.8"></path><text id="kity_text_405" text-rendering="geometricPrecision" x="108" y="992.5" text-anchor="middle" font-style="italic" font-size="12" fill="white" dy="5">3</text></g></g><g id="minder_node49"><g id="node_expander44" style="cursor: pointer;" display="none"><path id="kity_path_729" fill="white" stroke="gray" d="M258.5,1052.5A6,6,0,1,1,246.5,1052.5A6,6,0,1,1,258.5,1052.5"></path><path id="kity_path_730" fill="none" stroke="gray"></path></g><path id="node_outline45" fill="none" stroke="none" d="M77.5,1037.5h164a5,5,0,0,1,5,5v20a5,5,0,0,1,-5,5h-164a5,5,0,0,1,-5,-5v-20a5,5,0,0,1,5,-5z"></path><g id="node_text45" fill="black"><text id="kity_text_255" text-rendering="inherit" font-size="12" dy=".8em" y="1044.7000000476837" x="107.5">老erp确认是否审核通过 </text></g><g id="node_priority21"><path id="kity_path_408" fill="#B25000" stroke="none" d="M83,1056c0,3.866,3.134,7,7,7h6c3.866,0,7,-3.134,7,-7V1050H83V1056z"></path><path id="kity_path_409" fill="#FF962E" stroke="none" d="M103,1053c0,3.866,-3.134,7,-7,7H90c-3.866,0,-7,-3.134,-7,-7V1050c0,-3.866,3.134,-7,7,-7h6c3.866,0,7,3.134,7,7V1053z" opacity="0.8"></path><text id="kity_text_410" text-rendering="geometricPrecision" x="92" y="1052.5" text-anchor="middle" font-style="italic" font-size="12" fill="white" dy="5">4</text></g></g><g id="minder_node50"><g id="node_expander45" style="cursor: pointer;" display="none"><path id="kity_path_732" fill="white" stroke="gray" d="M258.5,1112.5A6,6,0,1,1,246.5,1112.5A6,6,0,1,1,258.5,1112.5"></path><path id="kity_path_733" fill="none" stroke="gray"></path></g><path id="node_outline46" fill="none" stroke="none" d="M133.5,1097.5h108a5,5,0,0,1,5,5v20a5,5,0,0,1,-5,5h-108a5,5,0,0,1,-5,-5v-20a5,5,0,0,1,5,-5z"></path><g id="node_text46" fill="black"><text id="kity_text_257" text-rendering="inherit" font-size="12" dy=".8em" y="1104.7000000476837" x="163.5">填写发货通知</text></g><g id="node_priority22"><path id="kity_path_413" fill="#4720C4" stroke="none" d="M139,1116c0,3.866,3.134,7,7,7h6c3.866,0,7,-3.134,7,-7V1110H139V1116z"></path><path id="kity_path_414" fill="#A464FF" stroke="none" d="M159,1113c0,3.866,-3.134,7,-7,7H146c-3.866,0,-7,-3.134,-7,-7V1110c0,-3.866,3.134,-7,7,-7h6c3.866,0,7,3.134,7,7V1113z" opacity="0.8"></path><text id="kity_text_415" text-rendering="geometricPrecision" x="148" y="1112.5" text-anchor="middle" font-style="italic" font-size="12" fill="white" dy="5">5</text></g></g><g id="minder_node51"><g id="node_expander53" style="cursor: pointer;"><path id="kity_path_756" fill="white" stroke="gray" d="M1578.5,1544.5A6,6,0,1,1,1566.5,1544.5A6,6,0,1,1,1578.5,1544.5"></path><path id="kity_path_757" fill="none" stroke="gray" d="M1568,1544.5L1577,1544.5"></path></g><path id="node_outline54" fill="rgb(238, 243, 246)" stroke="rgb(115, 161, 191)" d="M1470.5,1531.5h92a3,3,0,0,1,3,3v20a3,3,0,0,1,-3,3h-92a3,3,0,0,1,-3,-3v-20a3,3,0,0,1,3,-3z" stroke-width="1"></path><g id="node_text54" fill="black"><text id="kity_text_273" text-rendering="inherit" font-size="14" dy=".8em" y="1535.4000000953674" x="1487.5">产品下架</text></g></g><g id="minder_node52"><g id="node_expander50" style="cursor: pointer;" display="none"><path id="kity_path_747" fill="white" stroke="gray" d="M2017.5,1415.5A6,6,0,1,1,2005.5,1415.5A6,6,0,1,1,2017.5,1415.5"></path><path id="kity_path_748" fill="none" stroke="gray"></path></g><path id="node_outline51" fill="none" stroke="none" d="M2022.5,1404.5h174a5,5,0,0,1,5,5v12a5,5,0,0,1,-5,5h-174a5,5,0,0,1,-5,-5v-12a5,5,0,0,1,5,-5z"></path><g id="node_text51" fill="black"><text id="kity_text_267" text-rendering="inherit" font-size="12" dy=".8em" y="1407.7000000476837" x="2027.5">打开交易助手批量导出产品sku</text></g></g><g id="minder_node53"><g id="node_expander51" style="cursor: pointer;" display="none"><path id="kity_path_750" fill="white" stroke="gray" d="M2027.5,1488.5A6,6,0,1,1,2015.5,1488.5A6,6,0,1,1,2027.5,1488.5"></path><path id="kity_path_751" fill="none" stroke="gray"></path></g><path id="node_outline52" fill="none" stroke="none" d="M2032.5,1472.5h188a5,5,0,0,1,5,5v22a5,5,0,0,1,-5,5h-188a5,5,0,0,1,-5,-5v-22a5,5,0,0,1,5,-5z"></path><g id="node_text52" fill="black"><text id="kity_text_269" text-rendering="inherit" font-size="12" dy=".8em" y="1480.7000000476837" x="2037.5">使用该工具分离组合sku</text></g><a id="kity_a_455" xlink:href="http://ooc.youkeshu.com/decode.php" target="_blank" xlink:title="http://ooc.youkeshu.com/decode.php" style="cursor: pointer;"><path id="kity_path_457" fill="rgba(255, 255, 255, 0)" stroke="none" d="M2174.5,1477.5h16a4,4,0,0,1,4,4v14a4,4,0,0,1,-4,4h-16a4,4,0,0,1,-4,-4v-14a4,4,0,0,1,4,-4z"></path><path id="kity_path_456" fill="#666" stroke="none" d="M2189.114,1493.724h-1.278c-1.668,0,-3.07,-1.07,-3.599,-2.556h4.877c0.707,0,1.278,-0.571,1.278,-1.278V1487.334c0,-0.707,-0.571,-1.278,-1.278,-1.278h-4.877C2184.766,1484.571,2186.168,1483.5,2187.836,1483.5h1.278c2.116,0,3.834,1.716,3.834,3.834V1489.89C2192.948,1492.008,2191.23,1493.724,2189.114,1493.724zM2177.612,1488.612c0,-0.707,0.573,-1.278,1.278,-1.278h7.668c0.707,0,1.278,0.571,1.278,1.278S2187.265,1489.89,2186.558,1489.89H2178.89C2178.185,1489.89,2177.612,1489.319,2177.612,1488.612zM2175.056,1487.334V1489.89c0,0.707,0.573,1.278,1.278,1.278h4.877c-0.528,1.486,-1.932,2.556,-3.599,2.556H2176.334C2174.216,1493.724,2172.5,1492.008,2172.5,1489.89V1487.334C2172.5,1485.216,2174.216,1483.5,2176.334,1483.5h1.278c1.667,0,3.071,1.071,3.599,2.556H2176.334C2175.629,1486.056,2175.056,1486.627,2175.056,1487.334z"></path></a><g id="kity_g_497" style="cursor: pointer;"><path id="kity_path_498" fill="none" stroke="none" d="M2202,1480h12a2,2,0,0,1,2,2v13a2,2,0,0,1,-2,2h-12a2,2,0,0,1,-2,-2v-13a2,2,0,0,1,2,-2z"></path><path id="kity_path_499" fill="black" stroke="none" d="M2211,1491H2205V1490h6L2211,1491L2211,1491zM2211,1489H2205V1488h6V1489zM2211,1487H2205V1486h6V1487zM2210.5,1493H2204V1484h8v7.5M2211,1494l2,-2V1483H2203v11"></path></g></g><g id="minder_node54"><g id="node_expander52" style="cursor: pointer;" display="none"><path id="kity_path_753" fill="white" stroke="gray" d="M2010.5,1572A6,6,0,1,1,1998.5,1572A6,6,0,1,1,2010.5,1572"></path><path id="kity_path_754" fill="none" stroke="gray"></path></g><path id="node_outline53" fill="none" stroke="none" d="M2015.5,1558.5h184a5,5,0,0,1,5,5v17a5,5,0,0,1,-5,5h-184a5,5,0,0,1,-5,-5v-17a5,5,0,0,1,5,-5z" stroke-width="3"></path><g id="node_text53" fill="black"><text id="kity_text_271" text-rendering="inherit" font-size="12" dy=".8em" y="1563.7000000476837" x="2020.5">使用交易助手调sku库存为零</text></g><g id="kity_g_806" style="cursor: pointer;"><path id="kity_path_807" fill="none" stroke="none" d="M2181,1563h12a2,2,0,0,1,2,2v13a2,2,0,0,1,-2,2h-12a2,2,0,0,1,-2,-2v-13a2,2,0,0,1,2,-2z"></path><path id="kity_path_808" fill="black" stroke="none" d="M2190,1574H2184V1573h6L2190,1574L2190,1574zM2190,1572H2184V1571h6V1572zM2190,1570H2184V1569h6V1570zM2189.5,1576H2183V1567h8v7.5M2190,1577l2,-2V1566H2182v11"></path></g></g><g id="minder_node55"><g id="node_expander69" style="cursor: pointer;"><path id="kity_path_804" fill="white" stroke="gray" d="M907.5,501.5A6,6,0,1,1,895.5,501.5A6,6,0,1,1,907.5,501.5"></path><path id="kity_path_805" fill="none" stroke="gray" d="M897,501.5L906,501.5"></path></g><path id="node_outline70" fill="rgb(238, 243, 246)" stroke="rgb(115, 161, 191)" d="M801.5,488.5h90a3,3,0,0,1,3,3v20a3,3,0,0,1,-3,3h-90a3,3,0,0,1,-3,-3v-20a3,3,0,0,1,3,-3z" stroke-width="1"></path><g id="node_text70" fill="black"><text id="kity_text_305" text-rendering="inherit" font-size="14" dy=".8em" y="492.40000009536743" x="818.5">营销活动</text></g></g><g id="minder_node56"><g id="node_expander66" style="cursor: pointer;"><path id="kity_path_795" fill="white" stroke="gray" d="M770.5,308.5A6,6,0,1,1,758.5,308.5A6,6,0,1,1,770.5,308.5"></path><path id="kity_path_796" fill="none" stroke="gray" d="M760,308.5L769,308.5"></path></g><path id="node_outline67" fill="none" stroke="none" d="M694.5,297.5h59a5,5,0,0,1,5,5v12a5,5,0,0,1,-5,5h-59a5,5,0,0,1,-5,-5v-12a5,5,0,0,1,5,-5z"></path><g id="node_text67" fill="black"><text id="kity_text_299" text-rendering="inherit" font-size="12" dy=".8em" y="300.7000000476837" x="699.5">店铺活动</text></g></g><g id="minder_node57"><g id="node_expander54" style="cursor: pointer;" display="none"><path id="kity_path_759" fill="white" stroke="gray" d="M661.5,34A6,6,0,1,1,649.5,34A6,6,0,1,1,661.5,34"></path><path id="kity_path_760" fill="none" stroke="gray"></path></g><path id="node_outline55" fill="none" stroke="none" d="M565.5,20.5h79a5,5,0,0,1,5,5v17a5,5,0,0,1,-5,5h-79a5,5,0,0,1,-5,-5v-17a5,5,0,0,1,5,-5z"></path><g id="node_text55" fill="black"><text id="kity_text_275" text-rendering="inherit" font-size="12" dy=".8em" y="25.700000047683716" x="570.5">限时折扣</text></g><g id="kity_g_500" style="cursor: pointer;"><path id="kity_path_501" fill="none" stroke="none" d="M626,25h12a2,2,0,0,1,2,2v13a2,2,0,0,1,-2,2h-12a2,2,0,0,1,-2,-2v-13a2,2,0,0,1,2,-2z"></path><path id="kity_path_502" fill="black" stroke="none" d="M635,36H629V35h6L635,36L635,36zM635,34H629V33h6V34zM635,32H629V31h6V32zM634.5,38H628V29h8v7.5M635,39l2,-2V28H627v11"></path></g></g><g id="minder_node58"><g id="node_expander56" style="cursor: pointer;"><path id="kity_path_765" fill="white" stroke="gray" d="M661.5,114A6,6,0,1,1,649.5,114A6,6,0,1,1,661.5,114"></path><path id="kity_path_766" fill="none" stroke="gray" d="M651,114L660,114"></path></g><path id="node_outline57" fill="none" stroke="none" d="M563.5,100.5h81a5,5,0,0,1,5,5v17a5,5,0,0,1,-5,5h-81a5,5,0,0,1,-5,-5v-17a5,5,0,0,1,5,-5z" stroke-width="3"></path><g id="node_text57" fill="black"><text id="kity_text_279" text-rendering="inherit" font-size="12" dy=".8em" y="105.70000004768372" x="568.5">全店打折</text></g><g id="kity_g_503" style="cursor: pointer;"><path id="kity_path_504" fill="none" stroke="none" d="M626,105h12a2,2,0,0,1,2,2v13a2,2,0,0,1,-2,2h-12a2,2,0,0,1,-2,-2v-13a2,2,0,0,1,2,-2z"></path><path id="kity_path_505" fill="black" stroke="none" d="M635,116H629V115h6L635,116L635,116zM635,114H629V113h6V114zM635,112H629V111h6V112zM634.5,118H628V109h8v7.5M635,119l2,-2V108H627v11"></path></g></g><g id="minder_node59"><g id="node_expander55" style="cursor: pointer;" display="none"><path id="kity_path_762" fill="white" stroke="gray" d="M530.5,88.5A6,6,0,1,1,518.5,88.5A6,6,0,1,1,530.5,88.5"></path><path id="kity_path_763" fill="none" stroke="gray"></path></g><path id="node_outline56" fill="none" stroke="none" d="M346.5,77.5h167a5,5,0,0,1,5,5v12a5,5,0,0,1,-5,5h-167a5,5,0,0,1,-5,-5v-12a5,5,0,0,1,5,-5z" stroke-width="3"></path><g id="node_text56" fill="black"><text id="kity_text_277" text-rendering="inherit" font-size="12" dy=".8em" y="80.70000004768372" x="351.5">可以创建20个活动共720小时</text></g></g><g id="minder_node60"><g id="node_expander57" style="cursor: pointer;" display="none"><path id="kity_path_768" fill="white" stroke="gray" d="M661.5,195A6,6,0,1,1,649.5,195A6,6,0,1,1,661.5,195"></path><path id="kity_path_769" fill="none" stroke="gray"></path></g><path id="node_outline58" fill="none" stroke="none" d="M587.5,181.5h57a5,5,0,0,1,5,5v17a5,5,0,0,1,-5,5h-57a5,5,0,0,1,-5,-5v-17a5,5,0,0,1,5,-5z"></path><g id="node_text58" fill="black"><text id="kity_text_281" text-rendering="inherit" font-size="12" dy=".8em" y="186.70000004768372" x="592.5">满减</text></g><g id="kity_g_506" style="cursor: pointer;"><path id="kity_path_507" fill="none" stroke="none" d="M626,186h12a2,2,0,0,1,2,2v13a2,2,0,0,1,-2,2h-12a2,2,0,0,1,-2,-2v-13a2,2,0,0,1,2,-2z"></path><path id="kity_path_508" fill="black" stroke="none" d="M635,197H629V196h6L635,197L635,197zM635,195H629V194h6V195zM635,193H629V192h6V193zM634.5,199H628V190h8v7.5M635,200l2,-2V189H627v11"></path></g></g><g id="minder_node61"><g id="node_expander63" style="cursor: pointer;"><path id="kity_path_786" fill="white" stroke="gray" d="M661.5,365.5A6,6,0,1,1,649.5,365.5A6,6,0,1,1,661.5,365.5"></path><path id="kity_path_787" fill="none" stroke="gray" d="M651,365.5L660,365.5"></path></g><path id="node_outline64" fill="none" stroke="none" d="M596.5,354.5h48a5,5,0,0,1,5,5v12a5,5,0,0,1,-5,5h-48a5,5,0,0,1,-5,-5v-12a5,5,0,0,1,5,-5z" stroke-width="3"></path><g id="node_text64" fill="black"><text id="kity_text_293" text-rendering="inherit" font-size="12" dy=".8em" y="357.7000000476837" x="601.5">优惠券</text></g></g><g id="minder_node62"><g id="node_expander58" style="cursor: pointer;" display="none"><path id="kity_path_771" fill="white" stroke="gray" d="M563.5,252A6,6,0,1,1,551.5,252A6,6,0,1,1,563.5,252"></path><path id="kity_path_772" fill="none" stroke="gray"></path></g><path id="node_outline59" fill="none" stroke="none" d="M441.5,238.5h105a5,5,0,0,1,5,5v17a5,5,0,0,1,-5,5h-105a5,5,0,0,1,-5,-5v-17a5,5,0,0,1,5,-5z"></path><g id="node_text59" fill="black"><text id="kity_text_283" text-rendering="inherit" font-size="12" dy=".8em" y="243.70000004768372" x="446.5">领取型优惠券</text></g><g id="kity_g_509" style="cursor: pointer;"><path id="kity_path_510" fill="none" stroke="none" d="M528,243h12a2,2,0,0,1,2,2v13a2,2,0,0,1,-2,2h-12a2,2,0,0,1,-2,-2v-13a2,2,0,0,1,2,-2z"></path><path id="kity_path_511" fill="black" stroke="none" d="M537,254H531V253h6L537,254L537,254zM537,252H531V251h6V252zM537,250H531V249h6V250zM536.5,256H530V247h8v7.5M537,257l2,-2V246H529v11"></path></g></g><g id="minder_node63"><g id="node_expander59" style="cursor: pointer;" display="none"><path id="kity_path_774" fill="white" stroke="gray" d="M563.5,309A6,6,0,1,1,551.5,309A6,6,0,1,1,563.5,309"></path><path id="kity_path_775" fill="none" stroke="gray"></path></g><path id="node_outline60" fill="none" stroke="none" d="M417.5,295.5h129a5,5,0,0,1,5,5v17a5,5,0,0,1,-5,5h-129a5,5,0,0,1,-5,-5v-17a5,5,0,0,1,5,-5z"></path><g id="node_text60" fill="black"><text id="kity_text_285" text-rendering="inherit" font-size="12" dy=".8em" y="300.7000000476837" x="422.5">定向发送型优惠券</text></g><g id="kity_g_512" style="cursor: pointer;"><path id="kity_path_513" fill="none" stroke="none" d="M528,300h12a2,2,0,0,1,2,2v13a2,2,0,0,1,-2,2h-12a2,2,0,0,1,-2,-2v-13a2,2,0,0,1,2,-2z"></path><path id="kity_path_514" fill="black" stroke="none" d="M537,311H531V310h6L537,311L537,311zM537,309H531V308h6V309zM537,307H531V306h6V307zM536.5,313H530V304h8v7.5M537,314l2,-2V303H529v11"></path></g></g><g id="minder_node64"><g id="node_expander60" style="cursor: pointer;" display="none"><path id="kity_path_777" fill="white" stroke="gray" d="M563.5,366A6,6,0,1,1,551.5,366A6,6,0,1,1,563.5,366"></path><path id="kity_path_778" fill="none" stroke="gray"></path></g><path id="node_outline61" fill="none" stroke="none" d="M465.5,352.5h81a5,5,0,0,1,5,5v17a5,5,0,0,1,-5,5h-81a5,5,0,0,1,-5,-5v-17a5,5,0,0,1,5,-5z"></path><g id="node_text61" fill="black"><text id="kity_text_287" text-rendering="inherit" font-size="12" dy=".8em" y="357.7000000476837" x="470.5">金币兑换</text></g><g id="kity_g_515" style="cursor: pointer;"><path id="kity_path_516" fill="none" stroke="none" d="M528,357h12a2,2,0,0,1,2,2v13a2,2,0,0,1,-2,2h-12a2,2,0,0,1,-2,-2v-13a2,2,0,0,1,2,-2z"></path><path id="kity_path_517" fill="black" stroke="none" d="M537,368H531V367h6L537,368L537,368zM537,366H531V365h6V366zM537,364H531V363h6V364zM536.5,370H530V361h8v7.5M537,371l2,-2V360H529v11"></path></g></g><g id="minder_node65"><g id="node_expander61" style="cursor: pointer;" display="none"><path id="kity_path_780" fill="white" stroke="gray" d="M563.5,423A6,6,0,1,1,551.5,423A6,6,0,1,1,563.5,423"></path><path id="kity_path_781" fill="none" stroke="gray"></path></g><path id="node_outline62" fill="none" stroke="none" d="M453.5,409.5h93a5,5,0,0,1,5,5v17a5,5,0,0,1,-5,5h-93a5,5,0,0,1,-5,-5v-17a5,5,0,0,1,5,-5z"></path><g id="node_text62" fill="black"><text id="kity_text_289" text-rendering="inherit" font-size="12" dy=".8em" y="414.7000000476837" x="458.5">秒抢优惠券</text></g><g id="kity_g_518" style="cursor: pointer;"><path id="kity_path_519" fill="none" stroke="none" d="M528,414h12a2,2,0,0,1,2,2v13a2,2,0,0,1,-2,2h-12a2,2,0,0,1,-2,-2v-13a2,2,0,0,1,2,-2z"></path><path id="kity_path_520" fill="black" stroke="none" d="M537,425H531V424h6L537,425L537,425zM537,423H531V422h6V423zM537,421H531V420h6V421zM536.5,427H530V418h8v7.5M537,428l2,-2V417H529v11"></path></g></g><g id="minder_node66"><g id="node_expander62" style="cursor: pointer;" display="none"><path id="kity_path_783" fill="white" stroke="gray" d="M563.5,480A6,6,0,1,1,551.5,480A6,6,0,1,1,563.5,480"></path><path id="kity_path_784" fill="none" stroke="gray"></path></g><path id="node_outline63" fill="none" stroke="none" d="M441.5,466.5h105a5,5,0,0,1,5,5v17a5,5,0,0,1,-5,5h-105a5,5,0,0,1,-5,-5v-17a5,5,0,0,1,5,-5z"></path><g id="node_text63" fill="black"><text id="kity_text_291" text-rendering="inherit" font-size="12" dy=".8em" y="471.7000000476837" x="446.5">聚人气优惠券</text></g><g id="kity_g_521" style="cursor: pointer;"><path id="kity_path_522" fill="none" stroke="none" d="M528,471h12a2,2,0,0,1,2,2v13a2,2,0,0,1,-2,2h-12a2,2,0,0,1,-2,-2v-13a2,2,0,0,1,2,-2z"></path><path id="kity_path_523" fill="black" stroke="none" d="M537,482H531V481h6L537,482L537,482zM537,480H531V479h6V480zM537,478H531V477h6V478zM536.5,484H530V475h8v7.5M537,485l2,-2V474H529v11"></path></g></g><g id="minder_node67"><g id="node_expander64" style="cursor: pointer;" display="none"><path id="kity_path_789" fill="white" stroke="gray" d="M661.5,534.5A6,6,0,1,1,649.5,534.5A6,6,0,1,1,661.5,534.5"></path><path id="kity_path_790" fill="none" stroke="gray"></path></g><path id="node_outline65" fill="none" stroke="none" d="M597.5,523.5h47a5,5,0,0,1,5,5v12a5,5,0,0,1,-5,5h-47a5,5,0,0,1,-5,-5v-12a5,5,0,0,1,5,-5z"></path><g id="node_text65" fill="black"><text id="kity_text_295" text-rendering="inherit" font-size="12" dy=".8em" y="526.7000000476837" x="602.5">满包邮</text></g></g><g id="minder_node68"><g id="node_expander65" style="cursor: pointer;" display="none"><path id="kity_path_792" fill="white" stroke="gray" d="M661.5,586.5A6,6,0,1,1,649.5,586.5A6,6,0,1,1,661.5,586.5"></path><path id="kity_path_793" fill="none" stroke="gray"></path></g><path id="node_outline66" fill="none" stroke="none" d="M585.5,575.5h59a5,5,0,0,1,5,5v12a5,5,0,0,1,-5,5h-59a5,5,0,0,1,-5,-5v-12a5,5,0,0,1,5,-5z"></path><g id="node_text66" fill="black"><text id="kity_text_297" text-rendering="inherit" font-size="12" dy=".8em" y="578.7000000476837" x="590.5">店铺互动</text></g></g><g id="minder_node69"><g id="node_expander67" style="cursor: pointer;" display="none"><path id="kity_path_798" fill="white" stroke="gray" d="M770.5,640A6,6,0,1,1,758.5,640A6,6,0,1,1,770.5,640"></path><path id="kity_path_799" fill="none" stroke="gray"></path></g><path id="node_outline68" fill="none" stroke="none" d="M674.5,626.5h79a5,5,0,0,1,5,5v17a5,5,0,0,1,-5,5h-79a5,5,0,0,1,-5,-5v-17a5,5,0,0,1,5,-5z" stroke-width="3"></path><g id="node_text68" fill="black"><text id="kity_text_301" text-rendering="inherit" font-size="12" dy=".8em" y="631.7000000476837" x="679.5">平台活动</text></g><g id="kity_g_524" style="cursor: pointer;"><path id="kity_path_525" fill="none" stroke="none" d="M735,631h12a2,2,0,0,1,2,2v13a2,2,0,0,1,-2,2h-12a2,2,0,0,1,-2,-2v-13a2,2,0,0,1,2,-2z"></path><path id="kity_path_526" fill="black" stroke="none" d="M744,642H738V641h6L744,642L744,642zM744,640H738V639h6V640zM744,638H738V637h6V638zM743.5,644H737V635h8v7.5M744,645l2,-2V634H736v11"></path></g></g><g id="minder_node70"><g id="node_expander68" style="cursor: pointer;" display="none"><path id="kity_path_801" fill="white" stroke="gray" d="M770.5,694.5A6,6,0,1,1,758.5,694.5A6,6,0,1,1,770.5,694.5"></path><path id="kity_path_802" fill="none" stroke="gray"></path></g><path id="node_outline69" fill="none" stroke="none" d="M694.5,683.5h59a5,5,0,0,1,5,5v12a5,5,0,0,1,-5,5h-59a5,5,0,0,1,-5,-5v-12a5,5,0,0,1,5,-5z"></path><g id="node_text69" fill="black"><text id="kity_text_303" text-rendering="inherit" font-size="12" dy=".8em" y="686.7000000476837" x="699.5">联盟营销</text></g></g><g id="minder_node71"><g id="node_expander70" style="cursor: pointer;" display="none"><path id="kity_path_815" fill="white" stroke="gray" d="M530.5,140.5A6,6,0,1,1,518.5,140.5A6,6,0,1,1,530.5,140.5"></path><path id="kity_path_816" fill="none" stroke="gray"></path></g><path id="node_outline71" fill="none" stroke="none" d="M41.5,129.5h472a5,5,0,0,1,5,5v12a5,5,0,0,1,-5,5h-472a5,5,0,0,1,-5,-5v-12a5,5,0,0,1,5,-5z" stroke-width="3"></path><g id="node_text71" fill="black"><text id="kity_text_812" text-rendering="inherit" font-size="12" dy=".8em" y="132.70000004768372" x="46.5">2019年10月的时候全店铺和单品折扣合并，可以打不限时间不限产品的全店铺单品折扣</text></g></g></g></g></svg>